<?xml version="1.0" standalone="no"?>
<!DOCTYPE svg PUBLIC "-//W3C//DTD SVG 1.1//EN" "http://www.w3.org/Graphics/SVG/1.1/DTD/svg11.dtd" >
<svg xmlns="http://www.w3.org/2000/svg">
    <metadata>Generated by IcoMoon</metadata>
    <defs>
        <font id="lato-bold-webfont" horiz-adv-x="1024">
            <font-face units-per-em="1024" ascent="960" descent="-64"/>
            <missing-glyph horiz-adv-x="1024"/>
            <glyph unicode="&#x20;" horiz-adv-x="256" d=""/>
            <glyph unicode="&#x21;" glyph-name="uni21" horiz-adv-x="288"
                   d="M203.776 876.032v-292.864q0-46.592-4.608-91.392t-11.776-94.976h-86.016q-7.168 50.176-11.776 94.976t-4.608 91.392v292.864h118.784zM65.024 205.312q0 15.872 5.888 30.208t16.384 24.576 24.832 16.384 30.72 6.144q15.872 0 30.208-6.144t24.832-16.384 16.64-24.576 6.144-30.208q0-16.384-6.144-30.464t-16.64-24.32-24.832-16.128-30.208-5.888q-16.384 0-30.72 5.888t-24.832 16.128-16.384 24.32-5.888 30.464z"/>
            <glyph unicode="&#x22;" glyph-name="uni22" horiz-adv-x="405"
                   d="M163.328 876.032v-147.456l-11.264-79.872q-4.096-22.528-13.312-34.56t-30.72-12.032q-18.944 0-29.184 12.032t-14.336 34.56l-11.264 79.872v147.456h110.080zM351.744 876.032v-147.456l-11.264-79.872q-4.096-22.528-13.312-34.56t-30.72-12.032q-18.944 0-29.184 12.032t-14.336 34.56l-11.264 79.872v147.456h110.080z"/>
            <glyph unicode="&#x23;" glyph-name="uni23" horiz-adv-x="594"
                   d="M423.424 344.576l-38.912-208.896h-58.368q-8.704 0-16.384 4.096t-12.8 11.264-7.424 16.64 0.256 20.224l29.696 156.672h-104.96l-29.696-162.816q-4.096-24.576-20.48-35.328t-36.352-10.752h-56.32l38.912 208.896h-58.88q-19.456 0-27.648 11.52t-4.096 39.168l6.656 40.448h96.768l26.624 141.312h-109.568l9.728 52.736q4.096 19.456 16.384 28.928t39.424 9.472h56.832l31.744 164.864q4.096 20.48 18.944 31.744t34.816 11.264h57.856l-39.424-207.872h104.96l39.424 207.872h56.32q19.456 0 31.232-12.544t8.704-31.488l-31.744-163.84h103.424l-9.216-52.736q-4.096-19.456-16.384-28.928t-39.424-9.472h-51.2l-26.624-141.312h72.704q19.456 0 27.904-11.52t4.352-39.68l-6.656-39.936h-111.104zM227.328 435.712h104.96l26.624 141.312h-104.96z"/>
            <glyph unicode="&#x24;" glyph-name="uni24" horiz-adv-x="594"
                   d="M236.544 131.072q-59.904 8.192-112.64 32.768t-89.6 60.928l38.912 57.856q5.12 7.68 13.568 12.544t18.176 4.864q11.264 0 24.064-7.936t29.184-18.688 37.376-21.504 49.664-15.872l18.944 228.864q-36.352 10.752-71.936 24.32t-64 36.352-45.824 57.6-17.408 87.552q0 38.912 15.36 76.032t45.312 66.304 73.472 48.128 99.84 21.504l5.632 64.512q1.024 12.288 10.24 22.016t24.064 9.728h46.592l-8.704-100.352q54.784-8.704 94.208-30.976t68.096-49.92l-30.72-46.592q-6.656-10.24-13.824-15.36t-17.408-5.12q-7.68 0-18.432 4.864t-24.064 11.776-29.952 14.080-36.608 11.776l-17.92-211.968q36.864-11.264 73.216-24.832t65.28-35.072 46.848-53.504 17.92-80.128q0-47.616-15.872-89.344t-46.592-73.728-75.264-52.224-101.888-23.808l-6.144-75.264q-0.512-11.776-9.984-21.76t-23.808-9.984h-46.592zM433.152 348.16q0 19.456-6.912 34.048t-19.456 25.856-29.44 19.456-36.864 14.848l-17.408-207.872q54.272 7.168 82.176 36.608t27.904 77.056zM184.32 683.008q0-19.456 6.656-34.304t18.688-26.368 28.672-20.48 36.096-16.128l15.872 189.44q-28.672-3.584-48.64-12.032t-32.768-20.736-18.688-27.392-5.888-32z"/>
            <glyph unicode="&#x25;" glyph-name="uni25" horiz-adv-x="839"
                   d="M381.44 696.832q0-41.984-14.080-75.776t-37.632-57.6-54.784-36.608-65.024-12.8q-36.864 0-68.096 12.8t-54.016 36.608-35.584 57.6-12.8 75.776q0 43.008 12.8 77.824t35.584 58.88 54.016 37.12 68.096 13.056 68.352-13.056 54.528-37.12 35.84-58.88 12.8-77.824zM284.16 696.832q0 29.696-5.888 49.664t-15.872 32.256-23.552 17.664-28.928 5.376-28.672-5.376-22.784-17.664-15.104-32.256-5.632-49.664q0-28.672 5.632-47.872t15.104-30.976 22.784-16.896 28.672-5.12 28.928 5.12 23.552 16.896 15.872 30.976 5.888 47.872zM627.712 856.064q6.656 7.68 15.616 13.824t25.344 6.144h92.16l-549.888-721.408q-6.656-8.192-15.872-13.568t-22.528-5.376h-94.208zM799.744 309.76q0-41.984-14.080-75.776t-37.632-57.6-54.784-36.864-65.024-13.056q-36.864 0-68.096 13.056t-54.016 36.864-35.584 57.6-12.8 75.776q0 43.008 12.8 77.824t35.584 58.88 54.016 37.12 68.096 13.056 68.352-13.056 54.272-37.12 35.84-58.88 13.056-77.824zM701.952 309.76q0 29.696-5.632 49.664t-15.616 32.256-23.552 17.664-28.928 5.376-28.672-5.376-23.040-17.664-15.104-32.256-5.376-49.664q0-28.672 5.376-48.128t15.104-31.232 23.040-16.896 28.672-5.12 28.928 5.12 23.552 16.896 15.616 31.232 5.632 48.128z"/>
            <glyph unicode="&#x26;" glyph-name="uni26" horiz-adv-x="741"
                   d="M344.064 884.224q45.056 0 80.64-13.824t60.928-36.864 39.936-52.736 17.152-61.44l-80.384-16.896q-22.528-4.608-32.768 19.456-4.608 13.312-12.032 25.344t-17.664 20.992-24.064 14.336-31.744 5.376q-21.504 0-38.4-7.424t-28.416-19.968-17.664-29.184-6.144-35.072q0-15.36 3.072-29.696t10.24-28.672 18.688-29.44 28.416-32.512l196.608-204.288q16.896 32.256 27.136 68.096t13.312 72.704q1.536 11.776 8.192 18.944t18.432 7.168h78.848q-0.512-67.584-19.456-129.024t-54.272-113.152l155.136-160.768h-123.904q-19.456 0-31.488 4.608t-25.344 19.456l-51.2 52.736q-48.64-39.936-109.056-62.464t-130.56-22.528q-42.496 0-83.712 14.592t-73.472 42.24-51.968 66.816-19.712 88.32q0 34.816 11.264 65.792t31.232 57.344 47.616 47.872 60.416 36.864q-27.648 38.4-39.936 75.008t-12.288 72.96q0 38.4 14.080 72.96t40.704 60.16 65.536 40.704 88.064 15.104zM288.768 228.352q45.056 0 82.432 14.080t67.584 39.168l-194.048 200.192q-40.96-26.624-59.648-60.16t-18.688-71.936q0-28.16 9.728-50.688t26.368-38.144 38.912-24.064 47.36-8.448z"/>
            <glyph unicode="&#x27;" glyph-name="uni27" horiz-adv-x="217"
                   d="M163.328 876.032v-147.456l-11.264-79.872q-4.096-22.528-13.312-34.56t-30.72-12.032q-18.944 0-29.184 12.032t-14.336 34.56l-11.264 79.872v147.456h110.080z"/>
            <glyph unicode="&#x28;" glyph-name="uni28" horiz-adv-x="281"
                   d="M146.944 456.704q0-105.472 25.6-207.36t73.216-191.488q5.12-10.24 5.888-18.176t-1.28-13.824-6.4-10.24-9.472-7.424l-56.32-34.304q-37.888 58.368-64.512 117.248t-43.52 118.784-24.832 121.344-7.936 125.44 7.936 125.696 24.832 121.6 43.52 118.528 64.512 116.992l56.32-33.792q5.12-3.072 9.472-7.424t6.4-10.24 1.28-13.824-5.888-18.688q-47.616-89.088-73.216-191.232t-25.6-207.616z"/>
            <glyph unicode="&#x29;" glyph-name="uni29" horiz-adv-x="281"
                   d="M133.632 456.704q0 105.472-25.344 207.616t-72.96 191.232q-5.632 10.752-6.4 18.688t1.28 13.824 6.4 10.24 9.984 7.424l56.32 33.792q37.888-58.368 64.512-116.992t43.52-118.528 24.576-121.6 7.68-125.696-7.68-125.44-24.576-121.344-43.52-118.784-64.512-117.248l-56.32 34.304q-5.632 3.072-9.984 7.424t-6.4 10.24-1.28 13.824 6.4 18.176q47.616 89.6 72.96 191.488t25.344 207.36z"/>
            <glyph unicode="&#x2a;" glyph-name="uni2A" horiz-adv-x="435"
                   d="M187.392 564.224v93.696q0 10.24 1.28 19.968t4.352 18.432q-5.632-7.168-13.312-12.8t-16.384-11.264l-80.896-47.104-30.208 51.2 81.408 47.104q9.216 5.632 18.176 9.216t18.688 5.12q-18.944 2.048-36.864 14.848l-81.408 47.616 29.696 51.2 81.408-48.128q8.704-5.632 16.64-11.52t13.568-13.056q-3.584 8.704-4.864 18.432t-1.28 19.968v94.72h60.416v-93.696q0-10.752-1.28-20.736t-4.864-18.688q5.632 7.168 13.312 13.056t16.896 11.52l80.896 47.104 30.208-51.2-81.408-46.592q-9.216-5.632-18.176-9.472t-18.688-5.376q17.408-3.072 36.864-14.336l81.408-47.616-29.696-51.2-81.408 47.616q-9.216 5.632-16.896 11.264t-13.824 12.8q6.656-16.384 6.656-37.888v-94.208h-60.416z"/>
            <glyph unicode="&#x2b;" glyph-name="uni2B" horiz-adv-x="594"
                   d="M348.16 736.256v-209.92h198.656v-93.696h-198.656v-210.944h-102.912v210.944h-197.632v93.696h197.632v209.92h102.912z"/>
            <glyph unicode="&#x2c;" glyph-name="uni2C" horiz-adv-x="240"
                   d="M44.032 213.504q0 14.336 5.376 26.88t15.104 22.016 23.552 14.848 30.208 5.376q19.456 0 34.048-6.912t24.064-18.944 14.336-27.648 4.864-33.024q0-24.576-7.424-51.712t-21.76-54.272-35.584-52.736-48.384-47.104l-22.016 19.968q-9.216 7.68-9.216 18.944 0 4.096 2.816 9.216t6.912 9.216q5.632 6.144 13.824 15.104t16.384 20.48 15.104 25.088 9.984 28.928q-15.872 0-29.184 5.888t-22.784 16.128-14.848 24.064-5.376 30.208z"/>
            <glyph unicode="&#x2d;" glyph-name="uni2D" horiz-adv-x="382"
                   d="M58.368 497.664h265.216v-105.472h-265.216v105.472z"/>
            <glyph unicode="&#x2e;" glyph-name="uni2E" horiz-adv-x="243"
                   d="M44.032 205.312q0 15.872 5.888 30.208t16.128 24.576 24.576 16.384 30.72 6.144 30.464-6.144 24.576-16.384 16.64-24.576 6.144-30.208q0-16.384-6.144-30.464t-16.64-24.32-24.576-16.128-30.464-5.888-30.72 5.888-24.576 16.128-16.128 24.32-5.888 30.464z"/>
            <glyph unicode="&#x2f;" glyph-name="uni2F" horiz-adv-x="477"
                   d="M150.528 134.144q-8.704-23.552-27.904-35.328t-39.168-11.776h-53.76l299.008 764.928q8.192 21.504 25.088 33.024t39.424 11.52h54.272z"/>
            <glyph unicode="&#x30;" glyph-name="uni30" horiz-adv-x="594"
                   d="M568.32 505.856q0-96.768-20.736-168.192t-57.344-118.016-86.528-69.376-107.776-22.784-107.264 22.784-85.76 69.376-56.832 118.016-20.48 168.192q0 97.28 20.48 168.448t56.832 117.76 85.76 69.376 107.264 22.784 107.776-22.784 86.528-69.376 57.344-117.76 20.736-168.448zM437.76 505.856q0 80.384-11.776 133.12t-31.488 83.968-45.312 43.776-53.248 12.544q-27.136 0-52.48-12.544t-44.8-43.776-30.976-83.968-11.52-133.12 11.52-133.12 30.976-83.968 44.8-43.776 52.48-12.544q27.648 0 53.248 12.544t45.312 43.776 31.488 83.968 11.776 133.12z"/>
            <glyph unicode="&#x31;" glyph-name="uni31" horiz-adv-x="594"
                   d="M120.32 230.4h150.016v431.616q0 25.088 1.536 52.736l-106.496-89.088q-9.216-7.168-18.176-8.96t-16.896-0.256-14.080 5.376-9.216 8.448l-39.936 54.784 225.792 192h103.936v-646.656h133.12v-94.72h-409.6v94.72z"/>
            <glyph unicode="&#x32;" glyph-name="uni32" horiz-adv-x="594"
                   d="M304.128 884.224q51.2 0 93.696-15.104t72.704-42.752 47.104-66.56 16.896-86.528q0-40.96-12.032-75.776t-32.256-66.56-47.36-61.44-56.832-60.416l-167.424-170.496q24.576 7.168 48.384 11.008t45.312 3.84h189.952q20.48 0 32.512-11.52t12.032-30.464v-75.776h-507.904v41.984q0 12.8 5.376 26.88t17.152 25.344l224.768 225.28q28.16 28.672 50.432 54.784t37.12 51.712 22.784 51.968 7.936 55.552q0 26.624-7.68 46.848t-21.76 34.048-33.792 20.736-44.288 6.912q-22.528 0-41.728-6.4t-34.048-17.92-25.088-26.88-15.36-33.792q-8.704-23.552-22.528-31.232t-39.936-3.584l-66.56 11.776q7.68 53.248 29.696 93.44t55.040 67.072 75.776 40.448 91.904 13.568z"/>
            <glyph unicode="&#x33;" glyph-name="uni33" horiz-adv-x="594"
                   d="M307.712 884.224q51.2 0 92.416-14.592t70.4-40.448 44.8-60.672 15.616-75.264q0-35.328-7.936-62.208t-23.040-46.848-36.864-33.792-49.408-23.040q66.56-20.992 99.328-64t32.768-108.032q0-55.296-20.48-97.792t-55.296-71.424-80.64-43.776-97.024-14.848q-55.808 0-97.28 12.8t-72.192 37.888-52.224 61.44-36.864 83.968l55.808 23.040q22.016 9.216 41.216 4.864t27.904-20.736q9.216-17.92 20.224-35.328t26.368-30.976 36.096-22.016 49.408-8.448q32.256 0 56.32 10.496t40.192 27.392 24.064 37.632 7.936 41.728q0 26.624-5.632 48.384t-23.552 37.12-51.456 24.064-89.856 8.704v90.112q46.592 0.512 77.312 8.704t48.896 22.784 25.344 35.072 7.168 45.056q0 52.224-29.184 79.36t-77.824 27.136q-22.528 0-41.472-6.4t-34.048-17.92-25.344-26.88-15.36-33.792q-8.704-23.552-22.784-31.232t-39.68-3.584l-66.56 11.776q7.68 53.248 29.696 93.44t55.040 67.072 75.776 40.448 91.904 13.568z"/>
            <glyph unicode="&#x34;" glyph-name="uni34" horiz-adv-x="594"
                   d="M474.624 414.72h93.184v-73.216q0-10.24-6.656-17.664t-18.944-7.424h-67.584v-180.736h-110.080v180.736h-312.32q-12.8 0-22.528 7.936t-12.288 19.712l-13.312 64 350.72 468.48h119.808v-461.824zM364.544 656.896q0 34.304 4.608 75.264l-229.888-317.44h225.28v242.176z"/>
            <glyph unicode="&#x35;" glyph-name="uni35" horiz-adv-x="594"
                   d="M511.488 822.272q0-27.136-16.896-44.032t-57.344-16.896h-203.264l-26.624-154.624q50.176 10.24 91.136 10.24 58.368 0 102.912-17.408t74.752-48.128 45.568-71.936 15.36-88.832q0-58.88-20.736-107.52t-57.6-83.2-87.296-53.504-109.824-18.944q-34.816 0-66.048 7.168t-58.624 19.2-50.688 27.648-41.728 33.024l38.912 53.76q12.288 17.408 32.256 17.408 12.8 0 26.112-8.192t30.464-17.92 40.448-17.92 56.064-8.192q34.816 0 61.44 11.264t44.288 31.488 26.624 48.128 8.96 60.672q0 60.416-35.072 94.464t-103.68 34.048q-52.736 0-108.032-19.456l-78.848 22.528 61.44 359.424h365.568v-53.76z"/>
            <glyph unicode="&#x36;" glyph-name="uni36" horiz-adv-x="594"
                   d="M267.264 607.232q-7.168-8.704-13.568-16.384t-12.544-15.872q21.504 10.752 46.336 16.896t54.016 6.144q41.984 0 81.664-13.824t69.888-41.728 48.64-69.376 18.432-96.768q0-51.712-18.944-97.024t-53.248-79.104-82.688-53.248-106.752-19.456q-59.392 0-106.496 18.944t-80.384 52.992-50.944 81.92-17.664 106.24q0 52.224 21.248 107.264t65.792 114.432l176.64 237.056q9.216 12.288 26.88 20.992t40.704 8.704h112.64zM164.352 368.128q0-30.72 8.448-56.064t25.088-43.264 41.216-27.904 56.832-9.984q30.208 0 55.552 10.24t43.52 28.672 28.416 43.264 10.24 54.016q0 31.744-9.728 57.088t-27.648 43.008-43.008 26.88-55.296 9.216-54.784-10.24-41.984-28.416-27.136-43.008-9.728-53.504z"/>
            <glyph unicode="&#x37;" glyph-name="uni37" horiz-adv-x="594"
                   d="M559.104 876.032v-54.784q0-24.576-5.12-39.68t-10.24-25.344l-280.576-577.536q-8.704-17.92-24.576-30.464t-42.496-12.544h-91.648l286.208 565.76q9.216 17.408 18.688 32t21.248 27.904h-353.792q-11.776 0-20.48 8.704t-8.704 20.48v85.504h511.488z"/>
            <glyph unicode="&#x38;" glyph-name="uni38" horiz-adv-x="594"
                   d="M296.96 127.488q-57.344 0-104.704 15.36t-81.152 43.52-52.48 68.096-18.688 89.088q0 65.536 32.256 110.848t100.352 67.328q-54.272 22.528-81.152 64t-26.88 99.84q0 41.984 17.152 78.336t47.872 63.232 73.472 41.984 93.952 15.104 93.952-15.104 73.472-41.984 47.872-63.232 17.152-78.336q0-58.368-27.136-99.84t-80.896-64q68.096-22.016 100.352-67.328t32.256-110.848q0-49.152-18.688-89.088t-52.48-68.096-81.152-43.52-104.704-15.36zM296.96 226.304q31.232 0 54.784 8.96t39.68 24.832 24.32 37.888 8.192 47.616q0 60.928-33.792 92.16t-93.184 31.232-93.184-31.232-33.792-92.16q0-25.6 8.192-47.616t24.32-37.888 39.68-24.832 54.784-8.96zM296.96 568.32q30.72 0 51.712 9.728t33.792 25.856 18.176 36.864 5.376 42.752q0 20.992-6.656 39.936t-19.968 33.536-33.792 23.296-48.64 8.704-48.64-8.704-34.048-23.296-19.968-33.536-6.4-39.936q0-22.016 5.376-42.752t18.176-36.864 33.792-25.856 51.712-9.728z"/>
            <glyph unicode="&#x39;" glyph-name="uni39" horiz-adv-x="594"
                   d="M336.896 422.912q8.704 10.752 16.384 20.992t14.848 20.48q-25.6-16.384-56.32-24.832t-64.512-8.448q-38.4 0-75.264 13.312t-65.536 40.192-46.336 66.56-17.664 92.928q0 49.664 18.432 93.184t51.712 76.288 79.872 51.712 102.912 18.944q56.832 0 102.144-17.92t77.312-50.176 49.152-77.312 17.152-98.816q0-34.304-5.888-65.024t-16.64-59.136-26.112-55.552-34.304-53.76l-169.472-241.664q-8.704-12.288-26.112-20.736t-39.424-8.448h-116.224zM420.352 652.8q0 30.208-9.216 54.016t-26.112 40.192-40.192 25.088-50.944 8.704q-28.672 0-51.712-9.472t-39.424-26.368-25.088-40.192-8.704-50.944q0-61.952 32-94.464t90.88-32.512q30.72 0 54.784 9.728t40.448 26.624 24.832 39.936 8.448 49.664z"/>
            <glyph unicode="&#x3a;" glyph-name="uni3A" horiz-adv-x="264"
                   d="M54.272 205.312q0 15.872 5.888 30.208t16.128 24.576 24.576 16.384 30.72 6.144 30.464-6.144 24.576-16.384 16.64-24.576 6.144-30.208q0-16.384-6.144-30.464t-16.64-24.32-24.576-16.128-30.464-5.888-30.72 5.888-24.576 16.128-16.128 24.32-5.888 30.464zM54.272 570.368q0 15.872 5.888 30.208t16.128 24.576 24.576 16.384 30.72 6.144 30.464-6.144 24.576-16.384 16.64-24.576 6.144-30.208q0-16.384-6.144-30.464t-16.64-24.32-24.576-16.128-30.464-5.888-30.72 5.888-24.576 16.128-16.128 24.32-5.888 30.464z"/>
            <glyph unicode="&#x3b;" glyph-name="uni3B" horiz-adv-x="277"
                   d="M63.488 213.504q0 14.336 5.376 26.88t15.104 22.016 23.552 14.848 30.208 5.376q19.456 0 34.048-6.912t24.064-18.944 14.336-27.648 4.864-33.024q0-24.576-7.424-51.712t-21.76-54.272-35.584-52.736-48.384-47.104l-22.016 19.968q-9.216 7.68-9.216 18.944 0 4.096 2.816 9.216t6.912 9.216q5.632 6.144 13.824 15.104t16.384 20.48 15.104 25.088 9.984 28.928q-15.872 0-29.184 5.888t-22.784 16.128-14.848 24.064-5.376 30.208zM59.904 570.368q0 15.872 5.888 30.208t16.128 24.576 24.576 16.384 30.72 6.144 30.464-6.144 24.576-16.384 16.64-24.576 6.144-30.208q0-16.384-6.144-30.464t-16.64-24.32-24.576-16.128-30.464-5.888-30.72 5.888-24.576 16.128-16.128 24.32-5.888 30.464z"/>
            <glyph unicode="&#x3c;" glyph-name="uni3C" horiz-adv-x="594"
                   d="M77.312 506.368l406.016 211.456v-90.112q0-10.24-5.12-18.688t-16.896-14.592l-185.856-95.232q-11.776-6.144-24.832-10.496t-27.904-7.936q28.672-6.656 52.736-18.432l185.856-95.744q11.776-5.632 16.896-14.336t5.12-18.944v-90.112l-406.016 211.968v51.2z"/>
            <glyph unicode="&#x3d;" glyph-name="uni3D" horiz-adv-x="594"
                   d="M70.144 436.736h453.632v-94.208h-453.632v94.208zM70.144 616.96h453.632v-93.696h-453.632v93.696z"/>
            <glyph unicode="&#x3e;" glyph-name="uni3E" horiz-adv-x="594"
                   d="M516.608 455.168l-406.016-211.968v90.112q0 10.24 5.12 18.944t16.896 14.336l185.856 95.744q22.528 11.264 52.736 18.432-14.848 3.584-27.904 7.936t-24.832 10.496l-185.856 95.232q-11.776 6.144-16.896 14.592t-5.12 18.688v90.112l406.016-211.456v-51.2z"/>
            <glyph unicode="&#x3f;" glyph-name="uni3F" horiz-adv-x="471"
                   d="M36.352 808.96q17.408 15.36 38.144 29.184t44.8 24.064 52.224 16.128 60.928 5.888q44.544 0 81.152-12.288t62.72-35.072 40.448-55.040 14.336-72.192q0-38.912-11.264-67.328t-28.16-49.408-37.12-36.352-38.144-28.928-30.976-26.624-15.616-29.44l-11.776-74.752h-86.528l-8.704 83.456q-3.072 24.064 6.912 42.24t26.624 33.28 37.12 29.184 38.4 30.72 29.952 37.376 12.032 49.408q0 18.432-6.912 33.024t-19.2 25.088-29.44 16.128-37.12 5.632q-29.184 0-49.408-6.4t-34.304-14.336-23.808-14.336-17.408-6.4q-18.432 0-26.624 15.36zM133.12 205.312q0 15.872 5.888 30.208t16.128 24.576 24.576 16.384 30.72 6.144 30.464-6.144 24.576-16.384 16.64-24.576 6.144-30.208q0-16.384-6.144-30.464t-16.64-24.32-24.576-16.128-30.464-5.888-30.72 5.888-24.576 16.128-16.128 24.32-5.888 30.464z"/>
            <glyph unicode="&#x40;" glyph-name="uni40" horiz-adv-x="864"
                   d="M609.28 229.888q-35.328 0-62.464 16.384t-37.888 52.736q-30.208-36.864-64-52.736t-72.704-15.872q-32.256 0-56.064 11.264t-39.936 30.976-24.064 46.592-7.936 58.624q0 29.184 7.424 59.136t22.272 57.856 37.12 52.224 52.224 42.496 67.584 28.672 82.688 10.496q39.936 0 68.096-6.144t54.272-17.408l-49.152-189.952q-8.192-32.768-7.936-53.504t6.4-32.768 17.408-16.64 25.6-4.608q21.504 0 40.704 13.568t33.536 38.144 22.784 58.368 8.448 73.728q0 66.56-20.736 117.248t-58.112 84.736-88.832 51.2-112.896 17.152q-67.584 0-124.928-25.344t-99.584-69.376-66.048-103.936-23.808-129.024q0-83.968 26.112-147.712t71.68-106.496 107.264-64.256 133.376-21.504q39.424 0 73.728 4.352t62.976 11.776 52.224 16.896 41.984 20.224q13.312 7.68 23.552 4.608t14.848-15.36l17.408-45.568q-53.248-34.816-124.416-56.832t-162.304-22.016q-92.672 0-171.52 29.184t-136.448 83.712-90.112 132.864-32.512 176.128q0 54.784 14.080 106.496t40.192 97.024 62.976 83.2 81.92 65.024 97.536 42.24 109.824 15.104q72.704 0 139.52-24.32t118.272-69.632 82.176-110.592 30.72-147.2q0-54.784-16.128-102.656t-45.056-83.2-68.096-55.552-85.248-20.224zM397.312 311.808q13.312 0 26.88 4.096t25.856 14.592 22.528 27.904 16.896 43.52l37.376 144.384q-16.384 3.072-33.792 3.072-31.744 0-59.392-13.824t-47.872-37.376-32-54.016-11.776-63.232 14.080-50.944 41.216-18.176z"/>
            <glyph unicode="&#x41;" glyph-name="uni41" horiz-adv-x="711"
                   d="M716.8 135.68h-106.496q-17.92 0-29.184 8.96t-16.896 22.272l-55.296 151.040h-306.688l-55.296-151.040q-4.096-11.776-15.872-21.504t-29.184-9.728h-107.52l291.328 740.352h140.288zM237.568 415.232h236.032l-90.112 246.272q-6.656 16.384-13.824 38.656t-14.336 48.384q-7.168-26.112-14.080-48.64t-13.568-39.424z"/>
            <glyph unicode="&#x42;" glyph-name="uni42" horiz-adv-x="674"
                   d="M82.432 135.68v740.352h254.976q72.704 0 124.416-13.824t84.736-39.424 48.384-61.952 15.36-81.92q0-26.112-7.68-49.92t-23.808-44.544-40.96-37.632-59.136-28.672q152.576-34.304 152.576-164.864 0-47.104-17.92-87.040t-52.224-68.864-84.48-45.312-114.688-16.384h-279.552zM220.16 460.288v-217.088h139.264q38.4 0 64.512 9.216t41.728 24.576 22.528 35.84 6.912 43.52q0 24.064-7.68 43.264t-24.064 32.768-42.24 20.736-62.208 7.168h-138.752zM220.16 555.52h109.568q70.656 0 106.752 25.6t36.096 81.408q0 57.856-32.768 82.432t-102.4 24.576h-117.248v-214.016z"/>
            <glyph unicode="&#x43;" glyph-name="uni43" horiz-adv-x="677"
                   d="M590.848 310.272q11.264 0 19.968-8.704l54.272-58.88q-45.056-55.808-110.848-85.504t-157.952-29.696q-82.432 0-148.224 28.16t-112.384 78.336-71.424 119.808-24.832 152.064q0 83.456 26.624 152.832t75.008 119.552 115.456 78.080 148.48 27.904q80.896 0 143.616-26.624t106.752-69.632l-46.080-64q-4.096-6.144-10.496-10.752t-17.664-4.608q-7.68 0-15.872 4.352t-17.92 10.752-22.528 14.080-29.696 14.080-39.168 10.752-51.456 4.352q-49.664 0-90.88-17.664t-70.912-51.2-46.080-81.92-16.384-110.336q0-62.464 17.664-111.104t47.872-81.92 71.168-50.944 88.064-17.664q28.16 0 50.944 3.072t41.984 9.728 36.352 17.152 34.048 25.856q5.12 4.608 10.752 7.424t11.776 2.816z"/>
            <glyph unicode="&#x44;" glyph-name="uni44" horiz-adv-x="779"
                   d="M739.84 505.856q0-81.408-27.136-149.504t-76.288-117.248-118.272-76.288-153.6-27.136h-282.112v740.352h282.112q84.48 0 153.6-27.392t118.272-76.288 76.288-116.992 27.136-149.504zM598.528 505.856q0 60.928-16.128 109.312t-46.592 81.92-73.728 51.456-97.536 17.92h-143.872v-521.216h143.872q54.272 0 97.536 17.92t73.728 51.456 46.592 81.92 16.128 109.312z"/>
            <glyph unicode="&#x45;" glyph-name="uni45" horiz-adv-x="589"
                   d="M549.376 876.032v-109.568h-328.704v-205.312h259.072v-105.984h-259.072v-209.408h328.704v-110.080h-466.944v740.352h466.944z"/>
            <glyph unicode="&#x46;" glyph-name="uni46" horiz-adv-x="580"
                   d="M549.376 876.032v-109.568h-328.704v-219.136h277.504v-110.080h-277.504v-301.568h-138.24v740.352h466.944z"/>
            <glyph unicode="&#x47;" glyph-name="uni47" horiz-adv-x="743"
                   d="M692.736 207.36q-56.32-41.472-120.064-60.672t-136.448-19.2q-90.624 0-164.096 28.16t-125.44 78.336-80.128 119.808-28.16 152.064q0 83.456 27.136 153.088t77.056 119.808 121.088 77.824 159.744 27.648q45.056 0 84.224-7.168t72.704-19.712 61.184-30.464 50.688-39.424l-39.424-62.464q-9.216-14.848-24.064-18.176t-32.256 7.424l-33.792 19.456t-37.632 16.896-46.592 11.776-59.648 4.608q-54.784 0-99.072-18.432t-75.52-52.736-48.128-82.432-16.896-107.52q0-63.488 18.176-113.408t51.2-84.48 79.616-52.736 103.936-18.176q40.96 0 73.216 8.448t62.976 23.296v134.656h-93.184q-13.312 0-20.736 7.424t-7.424 18.176v77.824h245.76v-299.52z"/>
            <glyph unicode="&#x48;" glyph-name="uni48" horiz-adv-x="789"
                   d="M706.56 135.68h-138.24v323.584h-347.648v-323.584h-138.24v740.352h138.24v-318.464h347.648v318.464h138.24v-740.352z"/>
            <glyph unicode="&#x49;" glyph-name="uni49" horiz-adv-x="304"
                   d="M220.672 135.68h-138.24v740.352h138.24v-740.352z"/>
            <glyph unicode="&#x4a;" glyph-name="uni4A" horiz-adv-x="440"
                   d="M364.544 398.848q0-62.464-15.36-112.64t-45.824-85.504-76.032-54.272-105.984-18.944q-27.648 0-54.272 3.328t-55.808 10.496q1.536 20.48 3.584 40.96t3.584 40.96q1.536 11.264 8.96 18.176t21.248 6.912q8.704 0 22.784-3.584t35.584-3.584q29.184 0 51.712 8.448t37.632 26.88 22.784 47.872 7.68 71.424v480.256h137.728v-477.184z"/>
            <glyph unicode="&#x4b;" glyph-name="uni4B" horiz-adv-x="702"
                   d="M220.16 565.76h32.256q19.456 0 32.256 5.376t22.016 17.152l204.288 258.56q12.8 16.384 26.88 22.784t35.584 6.4h118.784l-249.344-307.712q-22.016-28.16-45.568-39.936 16.896-6.144 30.464-17.152t25.856-28.928l257.024-346.624h-121.344q-24.576 0-36.608 6.912t-20.224 20.224l-209.408 273.408q-9.728 13.824-22.528 19.456t-36.864 5.632h-43.52v-325.632h-137.728v740.352h137.728v-310.272z"/>
            <glyph unicode="&#x4c;" glyph-name="uni4C" horiz-adv-x="532"
                   d="M220.16 249.344h295.936v-113.664h-433.664v740.352h137.728v-626.688z"/>
            <glyph unicode="&#x4d;" glyph-name="uni4D" horiz-adv-x="968"
                   d="M454.144 442.88q8.704-16.384 16.128-34.048t14.592-35.584q7.168 18.944 14.848 36.608t16.384 34.048l218.624 410.112q4.096 7.68 8.704 12.288t9.984 6.656 12.032 2.56 15.872 0.512h103.936v-740.352h-121.344v478.208q0 13.312 0.768 29.184t2.304 32.256l-223.744-419.84q-15.872-30.208-48.64-30.208h-19.456q-32.768 0-48.64 30.208l-226.304 421.376q1.536-16.896 2.56-33.024t1.024-29.952v-478.208h-121.344v740.352h103.936q9.216 0 15.872-0.512t12.032-2.56 9.728-6.656 8.448-12.288l221.696-411.136z"/>
            <glyph unicode="&#x4e;" glyph-name="uni4E" horiz-adv-x="789"
                   d="M154.624 876.032q8.704 0 15.104-0.768t11.264-3.072 9.472-6.656 10.24-11.52l388.096-495.616q-1.536 17.92-2.56 35.328t-1.024 32.256v450.048h121.344v-740.352h-70.656q-16.384 0-27.392 5.376t-21.248 18.176l-386.56 493.056q1.536-16.384 2.304-32.512t0.768-29.44v-454.656h-121.344v740.352h72.192z"/>
            <glyph unicode="&#x4f;" glyph-name="uni4F" horiz-adv-x="827"
                   d="M788.48 505.856q0-81.408-26.88-150.784t-76.032-120.064-118.272-79.104-153.6-28.416q-83.968 0-153.088 28.416t-118.528 79.104-76.544 120.064-27.136 150.784 27.136 150.784 76.544 120.064 118.528 79.104 153.088 28.416q56.32 0 105.984-13.056t91.136-36.864 74.496-57.856 56.064-76.032 35.072-91.136 12.032-103.424zM647.68 505.856q0 60.928-16.384 109.312t-46.592 82.176-73.472 51.712-97.536 17.92-97.536-17.92-73.728-51.712-46.848-82.176-16.384-109.312 16.384-109.312 46.848-81.92 73.728-51.456 97.536-17.92 97.536 17.92 73.472 51.456 46.592 81.92 16.384 109.312z"/>
            <glyph unicode="&#x50;" glyph-name="uni50" horiz-adv-x="634"
                   d="M220.16 396.288v-260.608h-137.728v740.352h240.64q74.24 0 128.512-17.408t89.6-48.64 52.48-74.752 17.152-95.232q0-53.76-17.92-98.56t-53.76-77.056-89.856-50.176-126.208-17.92h-102.912zM220.16 503.808h102.912q37.888 0 66.048 9.472t46.848 27.136 27.904 43.008 9.216 56.576q0 29.696-9.216 53.76t-27.648 40.96-46.592 25.856-66.56 8.96h-102.912v-265.728z"/>
            <glyph unicode="&#x51;" glyph-name="uni51" horiz-adv-x="827"
                   d="M788.992 505.856q0-49.664-10.24-94.976t-29.44-84.992-46.848-72.704-62.976-58.112l187.904-204.288h-113.664q-24.576 0-44.288 6.656t-36.096 24.576l-108.544 119.808q-26.112-7.168-53.504-10.752t-57.088-3.584q-83.968 0-153.088 28.416t-118.528 79.104-76.544 120.064-27.136 150.784 27.136 150.784 76.544 120.064 118.528 79.104 153.088 28.416q56.32 0 105.984-13.056t91.136-36.864 74.496-57.856 56.064-76.032 35.072-91.136 12.032-103.424zM648.192 505.856q0 60.928-16.384 109.312t-46.592 82.176-73.472 51.712-97.536 17.92-97.536-17.92-73.728-51.712-46.848-82.176-16.384-109.312 16.384-109.312 46.848-81.92 73.728-51.456 97.536-17.92 97.536 17.92 73.472 51.456 46.592 81.92 16.384 109.312z"/>
            <glyph unicode="&#x52;" glyph-name="uni52" horiz-adv-x="658"
                   d="M220.16 424.96v-289.28h-137.728v740.352h225.792q75.264 0 129.28-15.616t88.576-43.776 50.944-67.328 16.384-86.272q0-37.376-11.008-70.656t-31.744-60.416-51.2-47.616-69.376-32.768q26.112-14.848 45.056-42.496l185.344-273.408h-124.416q-35.328 0-51.2 27.648l-155.648 237.056q-8.704 13.312-19.2 18.944t-30.976 5.632h-58.88zM220.16 523.776h86.016q38.912 0 67.84 9.728t47.616 26.88 27.904 40.704 9.216 51.712q0 56.32-37.12 86.528t-113.408 30.208h-88.064v-245.76z"/>
            <glyph unicode="&#x53;" glyph-name="uni53" horiz-adv-x="562"
                   d="M476.672 741.376q-6.144-10.752-13.056-15.616t-17.152-4.864q-10.752 0-23.296 7.936t-29.952 17.664-40.704 17.664-55.040 7.936q-28.672 0-50.176-6.912t-36.096-19.2-21.76-29.44-7.168-37.632q0-26.112 14.592-43.52t38.656-29.696 54.784-22.016 62.976-20.736 62.976-25.6 54.784-36.864 38.656-54.528 14.592-78.336q0-50.176-17.152-93.952t-50.176-76.288-80.64-51.2-109.056-18.688q-35.328 0-69.632 6.912t-65.792 19.712-59.136 30.72-49.152 39.936l40.448 66.048q5.12 7.168 13.312 12.032t17.408 4.864q12.8 0 27.648-10.496t35.328-23.296 47.872-23.296 65.792-10.496q58.88 0 91.136 27.904t32.256 80.128q0 29.184-14.592 47.616t-38.656 30.976-54.784 21.248-62.464 18.944-62.464 24.576-54.784 37.376-38.656 57.6-14.592 85.248q0 40.448 16.128 78.848t46.848 68.096 75.776 47.616 103.424 17.92q65.536 0 120.832-20.48t94.208-57.344z"/>
            <glyph unicode="&#x54;" glyph-name="uni54" horiz-adv-x="614"
                   d="M599.552 876.032v-113.152h-223.232v-627.2h-137.728v627.2h-223.232v113.152h584.192z"/>
            <glyph unicode="&#x55;" glyph-name="uni55" horiz-adv-x="760"
                   d="M380.416 246.784q39.936 0 71.424 13.312t52.992 37.376 33.024 58.368 11.52 76.8v443.392h137.728v-443.392q0-66.048-21.248-122.112t-60.928-96.768-96.512-63.488-128-22.784q-71.68 0-128.512 22.784t-96.512 63.488-60.928 96.768-21.248 122.112v443.392h137.728v-442.88q0-42.496 11.52-76.8t33.28-58.624 53.248-37.632 71.424-13.312z"/>
            <glyph unicode="&#x56;" glyph-name="uni56" horiz-adv-x="711"
                   d="M-5.632 876.032h110.592q17.92 0 29.184-8.704t16.896-22.528l174.592-451.584q8.704-22.016 16.64-48.384t15.104-55.040q5.632 28.672 13.056 55.040t16.128 48.384l173.568 451.584q4.096 11.776 16.128 21.504t29.44 9.728h111.104l-299.008-740.352h-124.416z"/>
            <glyph unicode="&#x57;" glyph-name="uni57" horiz-adv-x="1076"
                   d="M8.704 876.032h115.2q17.92 0 29.952-8.448t16.128-22.784l125.952-442.88q4.096-16.384 7.936-35.584t7.936-40.704q4.096 21.504 8.96 40.704t10.496 35.584l145.408 442.88q4.096 11.776 16.128 21.504t29.44 9.728h40.448q17.92 0 29.184-8.704t16.896-22.528l144.896-442.88q10.752-31.744 19.456-73.216 6.656 40.448 14.848 73.216l125.952 442.88q3.072 12.8 15.616 22.016t29.952 9.216h108.032l-229.888-740.352h-124.416l-161.792 505.856q-3.584 9.728-6.656 20.992t-6.144 23.552q-2.56-12.288-5.888-23.552t-6.4-20.992l-163.328-505.856h-124.928z"/>
            <glyph unicode="&#x58;" glyph-name="uni58" horiz-adv-x="687"
                   d="M247.296 516.608l-236.032 359.424h137.216q14.336 0 20.736-3.84t12.032-12.544l167.936-271.36q2.56 6.144 5.632 12.544t7.168 13.056l154.624 243.2q5.632 9.728 12.288 14.336t16.896 4.608h131.584l-238.080-353.792 244.736-386.56h-137.216q-14.336 0-22.784 7.168t-13.568 16.384l-171.52 283.648q-3.584-11.264-9.728-21.504l-164.352-262.144q-6.144-8.704-14.080-16.128t-20.736-7.424h-128.512z"/>
            <glyph unicode="&#x59;" glyph-name="uni59" horiz-adv-x="664"
                   d="M400.384 422.4v-286.72h-137.216v286.72l-269.824 453.632h121.344q17.92 0 28.416-8.704t17.664-22.016l135.168-247.296q11.776-22.528 20.736-41.984t16.128-38.4q6.656 19.456 15.36 38.912t19.968 41.472l134.656 247.296q5.632 11.264 16.896 20.992t28.672 9.728h121.856z"/>
            <glyph unicode="&#x5a;" glyph-name="uni5A" horiz-adv-x="620"
                   d="M592.384 876.032v-50.688q0-23.552-13.312-43.008l-379.904-536.576h384.512v-110.080h-563.2v54.272q0 10.24 3.584 19.712t9.216 17.664l380.928 539.136h-369.664v109.568h547.84z"/>
            <glyph unicode="&#x5b;" glyph-name="uni5B" horiz-adv-x="321"
                   d="M84.48-22.016v949.76h209.92v-49.664q0-13.312-9.216-22.784t-24.064-9.472h-71.168v-785.92h71.168q14.848 0 24.064-9.472t9.216-22.784v-49.664h-209.92z"/>
            <glyph unicode="&#x5c;" glyph-name="uni5C" horiz-adv-x="477"
                   d="M29.696 896.512h54.272q22.528 0 39.424-11.52t25.088-33.024l299.008-764.928h-53.76q-19.968 0-39.168 11.776t-27.904 35.328z"/>
            <glyph unicode="&#x5d;" glyph-name="uni5D" horiz-adv-x="321"
                   d="M26.624-22.016v49.664q0 13.312 9.216 22.784t24.064 9.472h71.168v785.92h-71.168q-14.848 0-24.064 9.472t-9.216 22.784v49.664h209.92v-949.76h-209.92z"/>
            <glyph unicode="&#x5e;" glyph-name="uni5E" horiz-adv-x="594"
                   d="M543.232 484.352h-92.672q-11.776 0-19.456 6.144t-12.288 15.36l-97.28 196.608q-8.192 16.384-14.336 30.976t-10.752 29.44q-4.608-14.848-10.24-29.44t-12.8-30.976l-92.16-196.608q-4.096-9.216-12.288-15.36t-20.992-6.144h-97.28l203.264 391.68h81.92z"/>
            <glyph unicode="&#x5f;" glyph-name="uni5F" horiz-adv-x="478"
                   d="M440.32 67.072v-81.92h-403.456v81.92h403.456z"/>
            <glyph unicode="&#x60;" glyph-name="uni60"
                   d="M159.232 884.224q20.992 0 31.232-6.912t17.408-20.224l73.216-124.416h-72.192q-14.336 0-23.296 3.84t-18.176 14.080l-126.464 133.632h118.272z"/>
            <glyph unicode="&#x61;" glyph-name="uni61" horiz-adv-x="520"
                   d="M406.016 135.68q-17.92 0-27.648 5.376t-15.36 21.76l-11.264 37.376q-19.968-17.92-38.912-31.488t-39.424-22.784-43.776-13.824-51.456-4.608q-33.28 0-61.44 8.96t-48.64 26.88-31.744 44.544-11.264 61.952q0 29.696 15.616 58.624t51.968 52.224 96.768 38.656 150.528 17.408v30.72q0 52.736-22.528 78.080t-65.024 25.344q-30.72 0-50.944-7.168t-35.584-16.128-27.904-16.128-27.904-7.168q-13.312 0-22.528 6.912t-14.848 16.128l-22.528 40.448q90.624 82.944 218.112 82.944 46.080 0 82.432-15.104t61.44-41.984 38.144-64.256 13.056-81.92v-331.776h-57.344zM217.088 214.528q38.912 0 67.328 14.080t55.552 42.752v88.576q-55.296-2.56-92.416-9.472t-59.648-17.664-32.256-25.088-9.728-31.232q0-33.28 19.712-47.616t51.456-14.336z"/>
            <glyph unicode="&#x62;" glyph-name="uni62" horiz-adv-x="581"
                   d="M62.464 135.68v760.832h126.464v-300.544q31.744 33.792 70.4 53.504t88.32 19.712q45.568 0 82.176-17.92t62.464-51.456 39.68-81.152 13.824-107.008q0-64-15.872-116.224t-45.312-89.344-70.912-57.6-92.16-20.48q-24.576 0-44.8 4.864t-36.864 13.568-30.72 21.248-26.88 27.904l-5.632-35.328q-3.072-13.312-10.496-18.944t-20.224-5.632h-83.456zM304.128 570.88q-36.352 0-63.488-16.64t-51.712-46.848v-235.52q21.504-26.624 46.848-37.12t53.504-10.496q29.184 0 52.48 10.496t39.68 32.768 25.088 56.832 8.704 82.688q0 86.528-28.672 125.184t-82.432 38.656z"/>
            <glyph unicode="&#x63;" glyph-name="uni63" horiz-adv-x="494"
                   d="M438.784 549.888q-5.632-7.168-11.008-11.264t-15.616-4.096q-9.728 0-18.944 5.888t-22.016 13.312-30.464 13.312-43.776 5.888q-33.28 0-58.368-12.032t-41.728-34.56-24.832-54.528-8.192-72.448q0-41.984 8.96-74.752t25.856-55.040 40.96-33.792 54.272-11.52 48.896 7.424 31.488 16.384 22.272 16.384 21.248 7.424q15.36 0 23.040-11.776l36.352-46.080q-20.992-24.576-45.568-41.216t-50.944-26.624-54.272-14.080-55.552-4.096q-48.64 0-91.648 18.176t-75.264 52.992-50.944 85.248-18.688 114.944q0 57.856 16.64 107.264t48.896 85.504 79.872 56.576 109.568 20.48q58.88 0 103.168-18.944t79.616-54.272z"/>
            <glyph unicode="&#x64;" glyph-name="uni64" horiz-adv-x="581"
                   d="M441.344 135.68q-25.088 0-31.744 23.040l-10.752 50.688q-16.384-18.432-34.304-33.28t-38.656-25.6-44.544-16.64-51.456-5.888q-43.008 0-78.848 17.92t-61.696 51.968-39.936 84.224-14.080 114.688q0 58.368 15.872 108.544t45.568 87.040 71.168 57.6 93.184 20.736q44.032 0 75.264-14.080t55.808-37.632v277.504h126.464v-760.832h-77.312zM272.896 228.352q39.424 0 67.072 16.384t52.224 46.592v235.52q-21.504 26.112-46.848 36.864t-54.528 10.752q-28.672 0-51.712-10.752t-39.424-32.512-25.088-55.296-8.704-79.104q0-46.080 7.424-78.080t21.248-52.224 33.792-29.184 44.544-8.96z"/>
            <glyph unicode="&#x65;" glyph-name="uni65" horiz-adv-x="547"
                   d="M286.208 669.184q49.664 0 91.648-15.872t72.192-46.336 47.36-74.752 17.152-101.12q0-28.672-6.144-38.656t-23.552-9.984h-325.12q3.072-40.448 14.336-69.888t29.696-48.64 43.776-28.672 56.064-9.472 52.992 7.168 38.912 15.872 29.184 15.872 24.32 7.168q15.872 0 23.552-11.776l36.352-46.080q-20.992-24.576-47.104-41.216t-54.528-26.624-57.856-14.080-57.088-4.096q-54.784 0-101.888 18.176t-81.92 53.76-54.784 88.064-19.968 121.6q0 53.76 17.408 101.12t49.92 82.432 79.36 55.552 105.728 20.48zM288.768 578.56q-55.296 0-86.528-31.232t-39.936-88.576h238.592q0 24.576-6.912 46.336t-20.736 38.144-35.072 25.856-49.408 9.472z"/>
            <glyph unicode="&#x66;" glyph-name="uni66" horiz-adv-x="367"
                   d="M99.328 135.68v430.080l-45.568 7.168q-14.848 3.072-23.808 10.496t-8.96 21.248v51.712h78.336v38.912q0 45.056 13.568 80.896t38.912 60.928 61.696 38.4 81.92 13.312q36.352 0 67.584-9.728l-2.56-63.488q-0.512-7.168-4.096-11.52t-9.472-6.656-13.568-3.072-16.384-0.768q-22.528 0-40.192-4.864t-29.952-16.896-18.688-31.744-6.4-48.896v-34.816h136.704v-90.112h-132.608v-430.592h-126.464z"/>
            <glyph unicode="&#x67;" glyph-name="uni67" horiz-adv-x="541"
                   d="M254.464 670.208q33.792 0 63.232-6.912t54.528-20.224h151.040v-47.104q0-22.528-27.136-27.648l-47.104-8.704q5.12-13.312 7.936-28.16t2.816-31.232q0-38.912-15.616-70.4t-43.264-53.504-65.28-34.048-81.152-12.032q-29.696 0-57.856 5.632-24.576-14.848-24.576-33.28 0-15.872 14.592-23.296t38.656-10.496 54.784-3.84 62.976-3.328 62.976-8.96 54.784-20.224 38.656-37.632 14.592-61.184q0-34.816-17.152-67.584t-49.664-58.368-79.872-41.216-107.776-15.616q-59.392 0-103.424 11.52t-73.216 30.72-43.52 44.288-14.336 52.224q0 36.352 22.272 61.44t60.672 39.936q-20.48 10.752-32.768 28.672t-12.288 47.104q0 11.776 4.096 24.32t12.544 24.832 21.504 23.296 30.464 19.712q-39.936 21.504-62.72 57.344t-22.784 83.968q0 38.912 15.616 70.4t43.52 53.76 66.048 34.048 83.2 11.776zM397.312 112.128q0 15.36-9.216 24.832t-25.088 15.104-37.12 8.192-45.056 3.84-49.152 2.304-49.408 4.096q-20.992-11.776-34.048-27.648t-13.056-36.864q0-13.824 6.912-25.856t22.016-20.736 39.168-13.568 58.88-4.864q35.328 0 60.928 5.376t42.24 14.848 24.32 22.528 7.68 28.416zM254.464 411.136q23.552 0 40.96 6.4t28.928 17.664 17.408 27.136 5.888 34.816q0 38.912-23.296 61.696t-69.888 22.784-69.888-22.784-23.296-61.696q0-18.432 5.888-34.304t17.408-27.392 29.184-17.92 40.704-6.4z"/>
            <glyph unicode="&#x68;" glyph-name="uni68" horiz-adv-x="578"
                   d="M62.464 135.68v760.832h126.464v-292.352q30.72 29.184 67.584 47.104t86.528 17.92q43.008 0 76.288-14.592t55.552-40.96 33.792-62.976 11.52-80.64v-334.336h-126.464v334.336q0 48.128-22.016 74.496t-67.072 26.368q-32.768 0-61.44-14.848t-54.272-40.448v-379.904h-126.464z"/>
            <glyph unicode="&#x69;" glyph-name="uni69" horiz-adv-x="260"
                   d="M193.536 660.992v-525.312h-126.976v525.312h126.976zM210.944 814.080q0-16.384-6.656-30.72t-17.664-25.088-25.856-17.152-31.744-6.4q-16.384 0-30.976 6.4t-25.344 17.152-17.152 25.088-6.4 30.72q0 16.896 6.4 31.744t17.152 25.6 25.344 17.152 30.976 6.4q16.896 0 31.744-6.4t25.856-17.152 17.664-25.6 6.656-31.744z"/>
            <glyph unicode="&#x6a;" glyph-name="uni6A" horiz-adv-x="260"
                   d="M193.536 660.992v-543.232q0-34.304-8.96-64.512t-28.672-52.992-51.712-35.84-78.080-13.056q-17.92 0-33.28 2.304t-31.744 7.424l4.608 68.096q1.536 10.24 8.192 13.056t25.6 2.816 32 3.84 20.736 12.288 11.008 22.272 3.328 34.304v543.232h126.976zM210.944 814.080q0-16.384-6.656-30.72t-17.664-25.088-26.112-17.152-32-6.4q-16.384 0-30.72 6.4t-25.088 17.152-17.152 25.088-6.4 30.72q0 16.896 6.4 31.744t17.152 25.6 25.088 17.152 30.72 6.4q16.896 0 32-6.4t26.112-17.152 17.664-25.6 6.656-31.744z"/>
            <glyph unicode="&#x6b;" glyph-name="uni6B" horiz-adv-x="547"
                   d="M188.928 896.512v-435.712h23.552q12.8 0 20.224 3.328t15.104 13.568l130.56 161.28q8.192 10.752 18.176 16.384t25.856 5.632h115.712l-163.328-195.072q-17.408-23.040-37.888-35.328 10.752-7.68 19.2-17.92t16.128-22.016l175.104-254.976h-114.176q-14.848 0-25.6 4.864t-17.92 17.664l-134.144 199.168q-7.168 11.776-14.848 15.36t-23.040 3.584h-28.672v-240.64h-126.464v760.832h126.464z"/>
            <glyph unicode="&#x6c;" glyph-name="uni6C" horiz-adv-x="254"
                   d="M190.464 896.512v-760.832h-126.464v760.832h126.464z"/>
            <glyph unicode="&#x6d;" glyph-name="uni6D" horiz-adv-x="858"
                   d="M62.464 135.68v525.312h77.312q24.576 0 32.256-23.040l8.192-38.912q13.824 15.36 28.928 28.16t32.256 22.016 36.864 14.592 43.264 5.376q49.664 0 81.664-26.88t47.872-71.424q12.288 26.112 30.72 44.8t40.448 30.464 46.848 17.408 49.92 5.632q43.52 0 77.312-13.312t56.832-38.912 35.072-62.464 12.032-84.48v-334.336h-126.464v334.336q0 50.176-22.016 75.52t-64.512 25.344q-19.456 0-36.096-6.656t-29.184-19.2-19.712-31.488-7.168-43.52v-334.336h-126.976v334.336q0 52.736-21.248 76.8t-62.208 24.064q-27.648 0-51.456-13.568t-44.288-37.12v-384.512h-126.464z"/>
            <glyph unicode="&#x6e;" glyph-name="uni6E" horiz-adv-x="578"
                   d="M62.464 135.68v525.312h77.312q24.576 0 32.256-23.040l8.704-41.472q15.872 16.384 33.536 29.696t37.376 23.040 42.24 14.848 49.152 5.12q43.008 0 76.288-14.592t55.552-40.96 33.792-62.976 11.52-80.64v-334.336h-126.464v334.336q0 48.128-22.016 74.496t-67.072 26.368q-32.768 0-61.44-14.848t-54.272-40.448v-379.904h-126.464z"/>
            <glyph unicode="&#x6f;" glyph-name="uni6F" horiz-adv-x="588"
                   d="M294.912 669.184q58.368 0 106.24-18.944t81.92-53.76 52.48-84.992 18.432-112.128q0-62.464-18.432-112.64t-52.48-85.504-81.92-54.272-106.24-18.944q-58.88 0-107.008 18.944t-82.176 54.272-52.736 85.504-18.688 112.64q0 61.952 18.688 112.128t52.736 84.992 82.176 53.76 107.008 18.944zM294.912 225.28q65.536 0 97.024 44.032t31.488 129.024-31.488 129.536-97.024 44.544q-66.56 0-98.56-44.8t-32-129.28 32-128.768 98.56-44.288z"/>
            <glyph unicode="&#x70;" glyph-name="uni70" horiz-adv-x="582"
                   d="M62.464-35.84v696.832h77.312q24.576 0 32.256-23.040l10.24-48.64q31.744 36.352 72.96 58.88t96.512 22.528q43.008 0 78.592-17.92t61.44-51.968 39.936-83.968 14.080-114.432q0-58.88-15.872-109.056t-45.312-87.040-71.168-57.6-93.44-20.736q-44.544 0-75.52 13.568t-55.552 37.632v-215.040h-126.464zM308.224 570.88q-39.424 0-67.328-16.64t-51.968-46.848v-235.52q21.504-26.624 46.848-37.12t55.040-10.496q28.672 0 51.712 10.752t39.168 32.768 24.832 55.552 8.704 79.104q0 46.080-7.424 78.080t-21.248 51.968-33.536 29.184-44.8 9.216z"/>
            <glyph unicode="&#x71;" glyph-name="uni71" horiz-adv-x="581"
                   d="M518.656 660.992v-696.832h-126.464v237.568q-15.872-16.896-33.536-30.464t-37.632-23.040-42.496-14.848-48.64-5.376q-43.008 0-78.848 17.92t-61.696 51.968-39.936 84.224-14.080 114.688q0 58.368 15.872 108.544t45.568 87.040 71.168 57.6 93.184 20.736q24.576 0 44.8-4.352t37.376-12.544 31.488-19.712 27.648-25.856l7.168 29.696q6.656 23.040 31.744 23.040h77.312zM272.896 228.352q39.424 0 67.072 16.384t52.224 46.592v235.52q-21.504 26.112-46.848 36.864t-54.528 10.752q-28.672 0-51.712-10.752t-39.424-32.512-25.088-55.296-8.704-79.104q0-46.080 7.424-78.080t21.248-52.224 33.792-29.184 44.544-8.96z"/>
            <glyph unicode="&#x72;" glyph-name="uni72" horiz-adv-x="382"
                   d="M62.464 135.68v525.312h74.24q19.456 0 27.136-6.912t10.24-24.832l7.168-59.392q25.088 47.104 58.88 73.984t79.872 26.88q36.352 0 58.368-15.872l-8.192-94.72q-2.56-9.216-7.424-13.056t-13.056-3.84q-7.68 0-22.784 2.56t-29.44 2.56q-20.992 0-37.376-6.144t-29.44-17.664-23.040-27.904-18.688-37.376v-323.584h-126.464z"/>
            <glyph unicode="&#x73;" glyph-name="uni73" horiz-adv-x="450"
                   d="M382.976 558.592q-5.12-8.192-10.752-11.52t-14.336-3.328q-9.216 0-19.712 5.12t-24.32 11.52-31.488 11.52-41.728 5.12q-37.376 0-58.624-15.872t-21.248-41.472q0-16.896 11.008-28.416t29.184-20.224 41.216-15.616 46.848-15.104 46.848-18.688 41.216-26.624 29.184-38.656 11.008-54.272q0-37.888-13.568-69.888t-40.192-55.296-65.792-36.352-90.368-13.056q-27.136 0-52.992 4.864t-49.664 13.568-44.032 20.48-35.584 25.6l29.184 48.128q5.632 8.704 13.312 13.312t19.456 4.608 22.272-6.656 24.32-14.336 32.512-14.336 47.36-6.656q22.528 0 38.656 5.376t26.624 14.080 15.36 20.224 4.864 23.808q0 18.432-11.008 30.208t-29.184 20.48-41.472 15.616-47.616 15.104-47.616 19.2-41.472 27.904-29.184 41.472-11.008 59.392q0 32.256 12.8 61.44t37.632 50.944 61.952 34.816 85.76 13.056q54.272 0 98.816-17.92t74.24-47.104z"/>
            <glyph unicode="&#x74;" glyph-name="uni74" horiz-adv-x="381"
                   d="M237.568 127.488q-68.608 0-105.216 38.656t-36.608 106.752v293.376h-53.76q-10.24 0-17.408 6.656t-7.168 19.968v50.176l84.48 13.824 26.624 143.36q2.56 10.24 9.728 15.872t18.432 5.632h65.536v-165.376h140.288v-90.112h-140.288v-284.672q0-24.576 12.032-38.4t33.024-13.824q11.776 0 19.712 2.816t13.824 5.888 10.496 5.888 9.216 2.816q5.632 0 9.216-2.816t7.68-8.448l37.888-61.44q-27.648-23.040-63.488-34.816t-74.24-11.776z"/>
            <glyph unicode="&#x75;" glyph-name="uni75" horiz-adv-x="578"
                   d="M183.808 660.992v-333.824q0-48.128 22.272-74.496t66.816-26.368q32.768 0 61.44 14.592t54.272 40.192v379.904h126.464v-525.312h-77.312q-25.088 0-31.744 23.040l-8.704 41.984q-16.384-16.384-33.792-29.952t-37.376-23.296-42.496-14.848-49.152-5.12q-43.008 0-76.032 14.592t-55.552 41.216-34.048 63.232-11.52 80.64v333.824h126.464z"/>
            <glyph unicode="&#x76;" glyph-name="uni76" horiz-adv-x="541"
                   d="M4.608 660.992h104.448q14.336 0 23.808-6.656t12.544-16.896l101.376-280.576q8.192-24.576 14.080-48.128t11.008-47.104q5.12 23.552 11.264 47.104t14.848 48.128l103.424 280.576q3.584 10.24 12.8 16.896t22.016 6.656h99.84l-208.384-525.312h-114.688z"/>
            <glyph unicode="&#x77;" glyph-name="uni77" horiz-adv-x="822"
                   d="M9.216 660.992h100.864q13.824 0 23.552-6.656t12.8-16.896l75.264-280.576q5.632-23.040 9.728-45.056t7.68-43.52q5.632 21.504 12.032 43.52t13.568 45.056l87.040 281.6q3.072 10.24 12.032 16.896t21.76 6.656h55.808q13.312 0 22.784-6.656t12.544-16.896l84.48-281.6q6.656-23.552 12.544-45.568t11.008-44.032q4.096 22.016 8.704 44.032t10.752 45.568l77.312 280.576q3.584 10.24 12.8 16.896t22.016 6.656h96.256l-166.912-525.312h-101.376q-17.408 0-24.064 22.528l-94.208 303.616q-9.728 31.232-14.848 60.416-6.144-30.72-15.36-61.44l-95.744-302.592q-6.144-22.528-27.136-22.528h-97.28z"/>
            <glyph unicode="&#x78;" glyph-name="uni78" horiz-adv-x="535"
                   d="M182.784 406.528l-172.544 254.464h121.856q13.824 0 20.48-3.84t11.776-12.544l110.080-175.616q2.56 8.704 6.4 17.408t9.472 17.408l88.576 138.24q11.264 18.944 29.184 18.944h116.224l-173.056-248.832 180.224-276.48h-121.856q-13.824 0-22.272 7.168t-14.080 16.384l-111.616 182.784q-4.608-18.432-12.8-30.72l-98.304-152.064q-5.632-8.704-13.824-16.128t-20.48-7.424h-113.152z"/>
            <glyph unicode="&#x79;" glyph-name="uni79" horiz-adv-x="540"
                   d="M253.44-8.704q-5.632-13.312-14.592-20.224t-27.392-6.912h-94.208l98.304 210.432-212.48 486.4h111.104q14.848 0 23.296-7.168t12.544-16.384l111.616-272.384q10.24-28.16 16.896-55.808 4.096 14.336 8.96 28.416t10.496 27.904l105.472 271.872q4.096 10.24 13.568 16.896t21.248 6.656h101.376z"/>
            <glyph unicode="&#x7a;" glyph-name="uni7A" horiz-adv-x="471"
                   d="M439.808 608.768q0-13.312-4.608-26.112t-12.288-20.992l-249.856-328.704h259.072v-97.28h-405.504v52.736q0 8.704 4.096 20.736t12.288 22.784l251.904 332.288h-253.44v96.768h398.336v-52.224z"/>
            <glyph unicode="&#x7b;" glyph-name="uni7B" horiz-adv-x="313"
                   d="M90.624 345.6q0 31.232-14.592 50.944t-46.848 19.712v73.216q32.256 0 46.848 19.712t14.592 50.944q0 24.064-3.328 47.872t-7.68 47.872-7.68 48.384-3.328 49.408q0 38.912 11.264 70.912t34.56 55.040 58.88 35.584 83.712 12.544h27.136v-56.32q0-6.656-2.816-11.52t-7.168-7.936-8.96-4.608-8.192-1.536h-4.608q-35.84 0-54.784-22.528t-18.944-61.952q0-28.16 3.072-54.016t6.4-50.176 6.4-47.872 3.072-47.616q0-19.456-5.376-36.864t-15.872-31.488-25.088-24.832-33.024-15.872q18.432-5.632 33.024-16.128t25.088-24.832 15.872-31.744 5.376-36.352q0-24.064-3.072-47.616t-6.4-47.872-6.4-50.176-3.072-54.016q0-38.912 18.944-61.44t54.784-22.528h4.608q3.584 0 8.192-1.536t8.96-4.608 7.168-8.192 2.816-11.776v-55.808h-27.136q-48.128 0-83.712 12.544t-58.88 35.328-34.56 54.784-11.264 70.912q0 25.088 3.328 49.408t7.68 48.384 7.68 48.128 3.328 48.128z"/>
            <glyph unicode="&#x7c;" glyph-name="uni7C" horiz-adv-x="267"
                   d="M84.48 927.744h98.304v-968.192h-98.304v968.192z"/>
            <glyph unicode="&#x7d;" glyph-name="uni7D" horiz-adv-x="313"
                   d="M222.72 345.6q0-24.064 3.328-48.128t7.68-48.128 7.68-48.384 3.328-49.408q0-38.912-11.264-70.912t-34.56-54.784-58.88-35.328-83.712-12.544h-27.136v55.808q0 6.656 2.816 11.776t7.168 8.192 8.96 4.608 8.192 1.536h4.608q35.84 0 54.528 22.528t18.688 61.44q0 28.16-2.816 54.016t-6.4 50.176-6.4 47.872-2.816 47.616q0 18.944 5.376 36.352t15.616 31.744 25.088 24.832 33.28 16.128q-18.432 5.12-33.28 15.872t-25.088 24.832-15.616 31.488-5.376 36.864q0 24.064 2.816 47.616t6.4 47.872 6.4 50.176 2.816 54.016q0 39.424-18.688 61.952t-54.528 22.528h-4.608q-3.584 0-8.192 1.536t-8.96 4.608-7.168 7.936-2.816 11.52v56.32h27.136q48.128 0 83.712-12.544t58.88-35.584 34.56-55.040 11.264-70.912q0-25.088-3.328-49.408t-7.68-48.384-7.68-47.872-3.328-47.872q0-31.232 14.592-50.944t46.848-19.712v-73.216q-32.256 0-46.848-19.712t-14.592-50.944z"/>
            <glyph unicode="&#x7e;" glyph-name="uni7E" horiz-adv-x="594"
                   d="M382.976 467.456q28.672 0 44.544 18.432t15.872 51.712h101.888q0-39.424-10.496-71.424t-30.208-54.784-48.384-35.072-65.536-12.288q-27.136 0-51.968 7.168t-47.104 15.616-41.728 15.616-35.84 7.168q-28.672 0-44.544-18.432t-15.872-51.712h-101.888q0 39.424 10.496 71.424t30.208 54.784 48.384 35.072 65.536 12.288q27.136 0 51.968-7.168t47.104-15.616 41.728-15.616 35.84-7.168z"/>
            <glyph unicode="&#xa1;" glyph-name="uniA1" horiz-adv-x="276"
                   d="M79.36-35.84v272.896q0 46.592 4.608 91.392t12.288 94.976h85.504q7.68-50.176 12.032-94.976t4.352-91.392v-272.896h-118.784zM59.904 592.384q0 16.384 5.888 30.464t16.128 24.32 24.576 16.128 30.72 5.888q15.872 0 30.208-5.888t24.832-16.128 16.64-24.32 6.144-30.464-6.144-30.464-16.64-24.32-24.832-16.384-30.208-6.144q-16.384 0-30.72 6.144t-24.576 16.384-16.128 24.32-5.888 30.464z"/>
            <glyph unicode="&#xa2;" glyph-name="uniA2" horiz-adv-x="594"
                   d="M273.92 131.584q-45.568 6.656-84.736 27.648t-67.84 54.784-44.8 80.128-16.128 104.192q0 55.808 17.152 104.192t50.176 84.224 81.152 57.344 110.592 24.064l7.168 80.384q1.536 11.776 10.496 21.76t23.808 9.984h46.592l-10.24-117.248q40.448-7.168 73.216-24.32t60.416-42.752l-32.256-44.544q-5.12-7.168-10.496-10.752t-15.104-3.584q-7.168 0-15.104 3.328t-17.664 8.448-22.272 10.24-28.928 9.216l-29.696-344.576q27.136 2.56 45.312 9.984t31.232 15.104 22.784 13.824 20.48 6.144q14.848 0 23.040-10.752l34.816-45.056q-36.352-41.472-84.736-60.672t-101.12-22.784l-6.144-75.264q-1.024-12.288-10.24-22.272t-23.552-9.984h-46.592zM185.344 398.336q0-68.608 25.088-110.848t71.68-57.088l29.184 341.504q-64-8.192-94.976-53.248t-30.976-120.32z"/>
            <glyph unicode="&#xa3;" glyph-name="uniA3" horiz-adv-x="594"
                   d="M18.944 483.328q0 17.408 10.496 29.952t32 12.544h54.784v120.832q0 48.128 14.592 91.392t43.776 75.776 73.216 51.456 103.424 18.944q40.448 0 72.96-10.496t57.856-28.416 44.032-42.24 32.512-52.48l-50.688-32.256q-17.92-9.216-34.048-8.192t-29.44 16.384q-9.728 11.264-19.2 20.736t-20.224 16.384-23.808 10.496-29.952 3.584q-52.736 0-78.848-34.56t-26.112-96v-121.344h209.408v-50.176q0-12.288-10.24-22.528t-25.6-10.24h-173.568v-99.328q0-33.792-12.544-60.16t-34.048-48.896q18.432 4.096 36.864 6.4t37.888 2.304h300.032v-53.248q0-9.216-3.84-18.944t-11.008-17.664-17.408-12.8-22.528-4.864h-490.496v79.36q16.896 4.096 32.768 11.52t27.904 18.944 19.2 27.136 7.168 36.608v133.632h-97.28v40.448z"/>
            <glyph unicode="&#xa4;" glyph-name="uniA4" horiz-adv-x="594"
                   d="M108.032 480.256q0 27.136 6.912 51.456t19.712 45.824l-78.336 77.824 64 62.464 76.8-76.8q22.016 13.312 47.104 20.736t52.736 7.424q26.624 0 51.2-6.912t46.080-19.712l77.824 77.824 62.976-62.976-77.312-77.312q13.312-22.016 20.736-47.104t7.424-52.736q0-27.136-6.912-51.2t-19.712-45.568l78.336-77.824-64-62.976-77.312 76.8q-21.504-13.312-46.592-20.48t-52.736-7.168q-26.624 0-50.944 6.656t-45.824 19.456l-78.336-77.824-62.976 63.488 77.312 76.8q-13.312 22.016-20.736 47.104t-7.424 52.736zM201.216 480.256q0-19.456 7.424-37.12t20.48-30.72 30.464-20.736 37.376-7.68 37.632 7.68 30.72 20.736 20.736 30.72 7.68 37.12q0 20.48-7.68 38.144t-20.736 30.72-30.72 20.736-37.632 7.68-37.376-7.68-30.464-20.736-20.48-30.72-7.424-38.144z"/>
            <glyph unicode="&#xa5;" glyph-name="uniA5" horiz-adv-x="594"
                   d="M70.144 459.776h140.8l-203.776 416.256h105.472q17.92 0 29.44-8.192t17.152-22.528l111.616-249.856q9.216-23.040 15.872-42.496t11.264-38.4q4.096 19.456 10.24 38.656t15.36 42.24l111.104 249.856q5.632 11.776 16.896 21.248t28.672 9.472h106.496l-204.288-416.256h141.312v-70.656h-163.328v-48.64h163.328v-70.144h-163.328v-134.656h-126.976v134.656h-163.328v70.144h163.328v48.64h-163.328v70.656z"/>
            <glyph unicode="&#xa6;" glyph-name="uniA6" horiz-adv-x="270"
                   d="M86.016 927.744h98.304v-414.208h-98.304v414.208zM86.016 377.856h98.304v-413.696h-98.304v413.696z"/>
            <glyph unicode="&#xa7;" glyph-name="uniA7" horiz-adv-x="516"
                   d="M419.84 773.12q-8.704-15.36-25.088-15.36-9.216 0-19.712 5.12t-24.32 11.52-31.488 11.52-41.728 5.12q-21.504 0-37.888-4.864t-27.392-13.312-16.896-19.712-5.888-24.064q0-16.384 12.032-28.672t32-23.296 45.312-21.248 51.968-21.76 51.968-25.344 45.312-31.744 32-41.472 12.032-54.272q0-41.472-19.2-75.008t-61.696-54.016q23.040-18.944 37.632-44.032t14.592-59.904q0-37.888-13.568-69.888t-40.192-55.296-65.792-36.352-90.368-13.056q-27.136 0-52.992 4.864t-49.664 13.568-44.032 20.48-35.584 25.6l29.696 48.128q5.12 8.704 12.8 13.312t19.456 4.608 22.272-6.656 24.832-14.336 34.304-14.336 50.176-6.656q41.984 0 65.28 17.408t23.296 48.128q0 20.48-12.288 35.328t-32.768 26.368-46.336 20.992-52.736 20.224-52.736 23.808-46.336 30.976-32.768 42.496-12.288 58.368q0 40.448 21.248 72.448t64.768 50.944q-23.552 19.968-38.4 47.36t-14.848 66.304q0 32.256 12.544 61.184t37.632 50.944 61.952 35.072 85.504 13.056q54.272 0 99.072-17.92t73.984-47.104zM157.184 506.88q0-21.504 14.848-37.12t38.656-28.16 53.504-24.064 58.88-24.832q20.48 10.24 29.696 25.856t9.216 34.048q0 22.528-14.336 38.144t-37.376 28.416-51.968 24.064-57.6 24.576q-23.040-12.288-33.28-26.88t-10.24-34.048z"/>
            <glyph unicode="&#xa8;" glyph-name="uniA8"
                   d="M172.032 797.184q0-14.336-5.632-26.88t-15.616-21.76-23.040-14.592-27.904-5.376q-13.824 0-26.368 5.376t-22.016 14.592-15.104 21.76-5.632 26.88q0 14.848 5.632 27.904t15.104 22.784 22.016 15.36 26.368 5.632q14.848 0 27.904-5.632t23.040-15.36 15.616-22.784 5.632-27.904zM378.88 797.184q0-14.336-5.632-26.88t-15.104-21.76-22.528-14.592-27.904-5.376q-14.336 0-27.136 5.376t-22.272 14.592-15.104 21.76-5.632 26.88q0 14.848 5.632 27.904t15.104 22.784 22.272 15.36 27.136 5.632q14.848 0 27.904-5.632t22.528-15.36 15.104-22.784 5.632-27.904z"/>
            <glyph unicode="&#xa9;" glyph-name="uniA9" horiz-adv-x="844"
                   d="M537.6 397.824q10.24 0 17.92-8.704l41.984-44.544q-28.672-36.352-72.448-55.552t-102.656-19.2q-51.2 0-92.672 18.176t-70.656 50.176-45.056 75.264-15.872 93.952q0 52.224 17.92 95.744t49.664 75.008 74.496 48.896 92.928 17.408q56.832 0 97.792-19.2t68.608-48.896l-33.28-45.568q-3.072-4.096-8.448-8.192t-13.568-4.096q-8.704 0-16.384 5.12t-18.688 11.264-27.392 11.264-42.496 5.12q-30.72 0-54.528-9.984t-40.448-28.672-25.344-45.312-8.704-59.904q0-34.816 8.96-61.44t24.576-44.8 37.376-27.648 47.872-9.472q25.088 0 41.216 4.096t27.136 9.728 19.968 11.264 20.224 8.704zM44.032 505.856q0 52.224 13.568 100.608t38.144 90.368 59.136 76.544 76.288 59.136 89.856 38.144 100.352 13.568 100.608-13.568 90.368-38.144 76.544-59.136 59.136-76.544 38.144-90.368 13.568-100.608q0-51.712-13.568-100.096t-38.144-90.112-59.136-76.288-76.544-59.136-90.368-38.144-100.608-13.568-100.352 13.568-89.856 38.144-76.288 59.136-59.136 76.288-38.144 89.856-13.568 100.352zM113.152 505.856q0-66.56 23.808-124.416t65.28-100.608 97.792-67.328 121.344-24.576q43.52 0 83.456 11.264t74.496 31.744 62.976 49.152 48.384 64 30.976 75.776 11.008 84.992-11.008 85.504-30.976 76.544-48.384 64.512-62.976 49.664-74.496 32-83.456 11.264-82.944-11.264-73.728-32-62.208-49.664-47.872-64.512-30.72-76.544-10.752-85.504z"/>
            <glyph unicode="&#xaa;" glyph-name="uniAA" horiz-adv-x="376"
                   d="M275.968 566.272q-12.288 0-18.688 3.584t-12.032 14.848l-6.144 18.432q-12.288-10.24-23.552-17.92t-23.040-12.8-25.344-7.68-30.464-2.56q-21.504 0-38.912 5.632t-29.952 16.64-19.456 27.136-6.912 37.12q0 16.896 8.704 34.56t30.208 32 57.856 23.808 91.648 11.008v12.8q0 27.648-12.032 39.168t-35.072 11.52q-17.408 0-28.672-3.584t-19.968-8.192-16.384-8.192-18.432-3.584q-9.728 0-16.128 5.376t-10.496 11.52l-15.872 29.184q28.672 26.112 62.976 38.144t74.24 12.032q29.184 0 52.224-9.216t39.168-25.856 24.576-39.168 8.448-49.152v-196.608h-42.496zM165.376 624.128q19.456 0 34.304 6.912t30.208 21.76v41.472q-30.208-1.024-49.664-4.608t-30.976-8.96-16.128-12.288-4.608-15.104q0-16.384 9.472-22.784t27.392-6.4z"/>
            <glyph unicode="&#xab;" glyph-name="uniAB" horiz-adv-x="466"
                   d="M46.080 402.944v16.384l131.072 202.752 41.472-19.456q16.384-7.168 18.944-20.736t-6.144-28.928l-70.656-120.32q-7.168-13.312-16.384-21.504 8.192-7.168 16.384-21.504l70.656-120.832q8.704-15.36 6.144-28.672t-18.944-20.48l-41.472-19.456zM214.528 402.944v16.384l131.072 202.752 41.472-19.456q16.384-7.168 18.944-20.736t-6.144-28.928l-70.656-120.32q-7.168-13.312-16.384-21.504 8.192-7.168 16.384-21.504l70.656-120.832q8.704-15.36 6.144-28.672t-18.944-20.48l-41.472-19.456z"/>
            <glyph unicode="&#xac;" glyph-name="uniAC" horiz-adv-x="594"
                   d="M67.584 526.336h454.144v-238.592h-107.52v144.896h-346.624v93.696z"/>
            <glyph unicode="&#xad;" glyph-name="uniAD" horiz-adv-x="382"
                   d="M58.368 497.664h265.216v-105.472h-265.216v105.472z"/>
            <glyph unicode="&#xae;" glyph-name="uniAE" horiz-adv-x="844"
                   d="M44.032 505.856q0 52.224 13.568 100.608t38.144 90.368 59.136 76.544 76.288 59.136 89.856 38.144 100.352 13.568 100.608-13.568 90.368-38.144 76.544-59.136 59.136-76.544 38.144-90.368 13.568-100.608q0-51.712-13.568-100.096t-38.144-90.112-59.136-76.288-76.544-59.136-90.368-38.144-100.608-13.568-100.352 13.568-89.856 38.144-76.288 59.136-59.136 76.288-38.144 89.856-13.568 100.352zM113.152 505.856q0-66.56 23.808-124.416t65.28-100.608 97.792-67.328 121.344-24.576q43.52 0 83.456 11.264t74.496 31.744 62.976 49.152 48.384 64 30.976 75.776 11.008 84.992-11.008 85.504-30.976 76.544-48.384 64.512-62.976 49.664-74.496 32-83.456 11.264-82.944-11.264-73.728-32-62.208-49.664-47.872-64.512-30.72-76.544-10.752-85.504zM364.544 443.904v-166.4h-110.080v459.264h164.864q95.744 0 140.288-34.304t44.544-98.304q0-45.568-23.552-79.616t-73.216-49.92q11.264-6.656 19.2-16.64t15.104-23.296l92.672-157.184h-104.96q-23.040 0-32.256 16.896l-73.728 134.656q-5.12 7.168-11.52 11.008t-19.2 3.84h-28.16zM364.544 522.24h45.056q26.624 0 43.264 4.352t26.112 13.056 13.056 21.504 3.584 29.184q0 15.872-3.072 27.904t-11.52 19.968-23.296 11.776-38.4 3.84h-54.784v-131.584z"/>
            <glyph unicode="&#xaf;" glyph-name="uniAF" d="M51.712 838.144h306.176v-80.896h-306.176v80.896z"/>
            <glyph unicode="&#xb0;" glyph-name="uniB0" horiz-adv-x="425"
                   d="M35.328 710.656q0 36.352 13.568 68.352t37.376 55.552 56.32 37.12 69.888 13.568 69.888-13.568 56.32-37.12 37.632-55.552 13.824-68.352q0-35.328-13.824-67.072t-37.632-55.552-56.32-37.632-69.888-13.824-69.888 13.824-56.32 37.632-37.376 55.552-13.568 67.072zM123.392 709.632q0-18.944 6.656-35.328t18.688-28.416 28.16-18.944 35.584-6.912q18.944 0 35.072 6.912t28.16 18.944 18.688 28.416 6.656 35.328q0 19.456-6.656 36.096t-18.688 28.928-28.16 19.456-35.072 7.168q-19.456 0-35.584-7.168t-28.16-19.456-18.688-28.928-6.656-36.096z"/>
            <glyph unicode="&#xb1;" glyph-name="uniB1" horiz-adv-x="594"
                   d="M347.648 771.072v-181.248h199.168v-94.208h-199.168v-174.592h-102.4v174.592h-198.144v94.208h198.144v181.248h102.4zM47.104 270.336h499.712v-93.696h-499.712v93.696z"/>
            <glyph unicode="&#xb2;" glyph-name="uniB2" horiz-adv-x="342"
                   d="M174.592 979.968q29.696 0 52.992-8.704t39.424-23.552 24.32-35.072 8.192-43.776q0-20.992-6.4-38.4t-16.896-33.28-24.32-30.72-28.672-30.208l-65.536-66.56q14.336 4.096 28.16 6.4t25.6 2.304h66.048q14.336 0 22.272-7.68t7.936-20.48v-53.76h-276.992v29.184q0 8.704 3.328 18.432t11.52 17.92l107.008 105.472q11.264 11.264 21.504 23.808t17.408 25.088 11.52 25.088 4.352 24.32q0 18.432-9.984 29.952t-27.904 11.52q-16.896 0-27.136-8.448t-16.896-24.32q-7.168-11.264-15.872-15.872t-26.624-1.536l-50.688 7.68q4.608 29.184 16.64 50.944t30.464 36.096 42.496 21.248 52.736 6.912z"/>
            <glyph unicode="&#xb3;" glyph-name="uniB3" horiz-adv-x="342"
                   d="M174.592 979.968q29.184 0 51.968-8.448t38.4-22.272 23.808-31.488 8.192-36.608q0-32.256-13.056-54.528t-42.24-34.56q30.72-10.24 46.592-28.928t15.872-48.896q0-31.744-11.776-54.528t-30.72-37.888-43.008-22.272-49.152-7.168q-27.648 0-49.664 5.376t-39.168 17.408-29.952 31.744-22.016 48.384l38.912 15.872q15.36 6.144 28.416 3.328t18.688-13.568q3.072-5.632 7.168-11.776t9.984-11.008 14.080-7.936 18.944-3.072q23.040 0 35.328 12.8t12.288 30.72q0 13.824-3.584 23.040t-12.032 14.848-22.784 7.936-35.84 2.304v59.392q21.504 0 35.328 3.328t21.76 9.216 11.264 14.592 3.328 19.456q0 18.944-9.984 29.952t-29.952 11.008q-17.92 0-28.16-8.192t-15.872-22.016q-3.584-6.656-6.912-10.752t-7.936-6.4-10.752-2.56-14.848 1.28l-47.104 7.68q4.096 29.184 16.128 50.944t29.952 36.096 40.96 21.248 49.152 6.912z"/>
            <glyph unicode="&#xb4;" glyph-name="uniB4"
                   d="M381.952 884.224l-126.464-133.632q-9.728-10.24-18.688-14.080t-23.296-3.84h-75.776l72.704 124.416q7.68 13.312 17.92 20.224t30.72 6.912h122.88z"/>
            <glyph unicode="&#xb5;" glyph-name="uniB5" horiz-adv-x="676"
                   d="M210.944 660.992v-310.272q0-47.616 22.272-76.288t66.304-28.672q40.96 0 69.632 22.272t46.592 62.72v330.24h126.464v-370.176q0-34.816 16.64-51.2t44.8-16.384h37.376v-50.176q0-8.192-5.376-15.872t-15.616-13.568-25.088-9.472-33.28-3.584q-21.504 0-41.728 6.144t-36.864 18.688-29.184 32-19.2 45.568q-27.648-43.008-62.72-66.304t-80.128-23.296q-60.928 0-97.792 32.256 5.12-22.016 6.912-45.312t1.792-43.264v-122.88h-62.976q-26.624 0-40.96 13.568t-14.336 39.168v644.096h126.464z"/>
            <glyph unicode="&#xb6;" glyph-name="uniB6" horiz-adv-x="755"
                   d="M717.824 876.032v-105.984h-109.568v-741.376h-110.592v741.376h-120.32v-741.376h-110.592v429.568q-53.248 0-96.256 16.64t-73.472 45.056-47.104 66.304-16.64 80.384q0 46.592 16.64 84.992t47.104 66.048 73.472 43.008 96.256 15.36h451.072z"/>
            <glyph unicode="&#xb7;" glyph-name="uniB7" horiz-adv-x="281"
                   d="M44.032 440.32q0 19.968 7.424 37.632t20.48 30.72 30.464 20.48 37.376 7.424q20.48 0 38.144-7.424t30.72-20.48 20.736-30.72 7.68-37.632-7.68-37.12-20.736-30.208-30.72-20.48-38.144-7.424q-19.968 0-37.376 7.424t-30.464 20.48-20.48 30.208-7.424 37.12z"/>
            <glyph unicode="&#xb8;" glyph-name="uniB8"
                   d="M143.872 15.872q7.168 0 15.616-3.84t24.832-3.84q16.896 0 25.344 6.4t8.448 15.616q0 14.848-18.432 21.248t-56.832 12.032l30.72 90.112h70.656l-13.824-49.152q48.128-11.264 67.584-30.464t19.456-45.824q0-17.408-8.96-31.232t-25.6-23.552-39.68-14.848-50.688-5.12q-20.992 0-39.168 2.816t-36.096 8.448l11.776 39.424q3.072 11.776 14.848 11.776z"/>
            <glyph unicode="&#xb9;" glyph-name="uniB9" horiz-adv-x="342"
                   d="M74.24 654.848h71.168v184.32l2.56 26.112-39.424-31.232q-6.144-4.608-12.544-5.632t-11.776 0.256-9.472 3.84-6.144 5.632l-28.16 38.4 119.296 99.328h76.288v-321.024h58.88v-58.368h-220.672v58.368z"/>
            <glyph unicode="&#xba;" glyph-name="uniBA" horiz-adv-x="410"
                   d="M205.824 885.248q37.376 0 68.096-11.264t52.736-32 34.048-50.688 12.032-67.328q0-37.888-12.032-68.352t-34.048-51.712-52.736-32.512-68.096-11.264-68.352 11.264-53.248 32.512-34.56 51.712-12.288 68.352q0 37.376 12.288 67.328t34.56 50.688 53.248 32 68.352 11.264zM205.824 633.856q34.304 0 50.944 21.76t16.64 67.328-16.64 67.072-50.944 21.504q-35.84 0-52.48-21.504t-16.64-67.072 16.64-67.328 52.48-21.76z"/>
            <glyph unicode="&#xbb;" glyph-name="uniBB" horiz-adv-x="466"
                   d="M251.904 419.328v-16.384l-131.072-202.752-41.472 19.456q-16.384 7.168-19.2 20.48t5.888 28.672l71.168 120.832q4.096 6.656 7.936 12.032t8.448 9.472q-4.608 4.096-8.448 9.216t-7.936 12.288l-71.168 120.32q-8.704 15.36-5.888 28.928t19.2 20.736l41.472 19.456zM420.352 419.328v-16.384l-131.072-202.752-41.472 19.456q-16.384 7.168-19.2 20.48t5.888 28.672l71.168 120.832q4.096 6.656 7.936 12.032t8.448 9.472q-4.608 4.096-8.448 9.216t-7.936 12.288l-71.168 120.32q-8.704 15.36-5.888 28.928t19.2 20.736l41.472 19.456z"/>
            <glyph unicode="&#xbc;" glyph-name="uniBC" horiz-adv-x="761"
                   d="M231.424 172.032q-13.312-20.992-28.416-28.672t-35.072-7.68h-53.76l427.008 698.88q12.288 19.456 27.904 30.464t38.144 11.008h54.272zM71.168 555.52h71.168v184.32l2.56 26.112-39.424-31.232q-6.144-4.608-12.544-5.632t-11.776 0.256-9.472 3.84-6.144 5.632l-28.16 38.4 119.296 99.328h76.288v-321.024h58.88v-58.368h-220.672v58.368zM674.816 280.064h47.616v-45.056q0-6.656-4.608-11.776t-12.288-5.12h-30.72v-82.432h-75.776v82.432h-148.48q-11.776 0-18.688 5.376t-8.96 13.568l-7.168 38.912 171.52 239.104h87.552v-235.008zM599.040 366.080q0 12.288 0.768 26.368t2.816 29.952l-103.936-142.336h100.352v86.016z"/>
            <glyph unicode="&#xbd;" glyph-name="uniBD" horiz-adv-x="753"
                   d="M211.456 172.032q-13.312-20.992-28.416-28.672t-35.072-7.68h-53.76l427.008 698.88q12.288 19.456 27.904 30.464t38.144 11.008h54.272zM72.192 555.52h71.168v184.32l2.56 26.112-39.424-31.232q-6.144-4.608-12.544-5.632t-11.776 0.256-9.472 3.84-6.144 5.632l-28.16 38.4 119.296 99.328h76.288v-321.024h58.88v-58.368h-220.672v58.368zM577.024 519.168q29.696 0 52.992-8.704t39.424-23.552 24.32-35.072 8.192-43.776q0-20.992-6.4-38.4t-16.896-33.28-24.32-30.72-28.672-30.208l-65.536-66.56q14.336 4.096 28.16 6.4t25.6 2.304h66.048q14.336 0 22.272-7.68t7.936-20.48v-53.76h-276.992v29.184q0 8.704 3.328 18.432t11.52 17.92l107.008 105.472q11.264 11.264 21.504 23.808t17.408 25.088 11.52 25.088 4.352 24.32q0 18.432-9.984 29.952t-27.904 11.52q-16.896 0-27.136-8.448t-16.896-24.32q-7.168-11.264-15.872-15.872t-26.624-1.536l-50.688 7.68q4.608 29.184 16.64 50.944t30.464 36.096 42.496 21.248 52.736 6.912z"/>
            <glyph unicode="&#xbe;" glyph-name="uniBE" horiz-adv-x="767"
                   d="M241.152 172.032q-13.312-20.992-28.416-28.672t-35.072-7.68h-53.76l427.008 698.88q12.288 19.456 27.904 30.464t38.144 11.008h54.272zM184.832 880.64q29.184 0 51.968-8.448t38.4-22.272 23.808-31.488 8.192-36.608q0-32.256-13.056-54.528t-42.24-34.56q30.72-10.24 46.592-28.928t15.872-48.896q0-31.744-11.776-54.528t-30.72-37.888-43.008-22.272-49.152-7.168q-27.648 0-49.664 5.376t-39.168 17.408-29.952 31.744-22.016 48.384l38.912 15.872q15.36 6.144 28.416 3.328t18.688-13.568q3.072-5.632 7.168-11.776t9.984-11.008 14.080-7.936 18.944-3.072q23.040 0 35.328 12.8t12.288 30.72q0 13.824-3.584 23.040t-12.032 14.848-22.784 7.936-35.84 2.304v59.392q21.504 0 35.328 3.328t21.76 9.216 11.264 14.592 3.328 19.456q0 18.944-9.984 29.952t-29.952 11.008q-17.92 0-28.16-8.192t-15.872-22.016q-3.584-6.656-6.912-10.752t-7.936-6.4-10.752-2.56-14.848 1.28l-47.104 7.68q4.096 29.184 16.128 50.944t29.952 36.096 40.96 21.248 49.152 6.912zM681.984 280.064h47.616v-45.056q0-6.656-4.608-11.776t-12.288-5.12h-30.72v-82.432h-75.776v82.432h-148.48q-11.776 0-18.688 5.376t-8.96 13.568l-7.168 38.912 171.52 239.104h87.552v-235.008zM606.208 366.080q0 12.288 0.768 26.368t2.816 29.952l-103.936-142.336h100.352v86.016z"/>
            <glyph unicode="&#xbf;" glyph-name="uniBF" horiz-adv-x="466"
                   d="M433.664 31.744q-17.92-15.36-38.4-28.928t-44.8-24.064-52.224-16.384-60.672-5.888q-44.544 0-81.152 11.776t-62.72 33.792-40.448 53.504-14.336 71.424q0 38.912 11.264 66.048t28.16 46.336 37.12 32.512 38.144 25.088 30.72 23.808 15.872 28.416l11.776 74.24h86.528l9.216-83.456q3.072-26.112-6.912-43.52t-26.88-30.464-37.376-24.32-38.144-25.088-29.696-32.256-12.032-46.080q0-18.432 6.912-33.024t19.2-25.088 29.184-16.128 36.864-5.632q29.184 0 49.152 6.656t34.304 14.336 24.064 14.336 17.408 6.656q18.432 0 26.624-15.872zM180.224 592.384q0 15.872 5.888 30.208t16.128 24.576 24.576 16.384 30.72 6.144 30.464-6.144 24.576-16.384 16.64-24.576 6.144-30.208q0-16.384-6.144-30.464t-16.64-24.32-24.576-16.128-30.464-5.888-30.72 5.888-24.576 16.128-16.128 24.32-5.888 30.464z"/>
            <glyph unicode="&#xc0;" glyph-name="uniC0" horiz-adv-x="711"
                   d="M716.8 135.68h-106.496q-17.92 0-29.184 8.96t-16.896 22.272l-55.296 151.040h-306.688l-55.296-151.040q-4.096-11.776-15.872-21.504t-29.184-9.728h-107.52l291.328 740.352h140.288zM237.568 415.232h236.032l-90.112 246.272q-6.656 16.384-13.824 38.656t-14.336 48.384q-7.168-26.112-14.080-48.64t-13.568-39.424zM271.36 1088.512q10.24 0 17.664-0.512t13.312-2.816 11.008-6.4 10.752-11.264l111.616-138.752h-91.648q-14.848 0-23.296 1.792t-18.688 10.496l-163.328 147.456h132.608z"/>
            <glyph unicode="&#xc1;" glyph-name="uniC1" horiz-adv-x="711"
                   d="M716.8 135.68h-106.496q-17.92 0-29.184 8.96t-16.896 22.272l-55.296 151.040h-306.688l-55.296-151.040q-4.096-11.776-15.872-21.504t-29.184-9.728h-107.52l291.328 740.352h140.288zM237.568 415.232h236.032l-90.112 246.272q-6.656 16.384-13.824 38.656t-14.336 48.384q-7.168-26.112-14.080-48.64t-13.568-39.424zM570.368 1088.512l-165.888-146.432q-10.24-9.216-19.456-11.264t-23.552-2.048h-91.648l107.008 138.752q5.12 7.168 10.24 11.52t11.264 6.4 13.568 2.56 17.664 0.512h140.8z"/>
            <glyph unicode="&#xc2;" glyph-name="uniC2" horiz-adv-x="711"
                   d="M716.8 135.68h-106.496q-17.92 0-29.184 8.96t-16.896 22.272l-55.296 151.040h-306.688l-55.296-151.040q-4.096-11.776-15.872-21.504t-29.184-9.728h-107.52l291.328 740.352h140.288zM237.568 415.232h236.032l-90.112 246.272q-6.656 16.384-13.824 38.656t-14.336 48.384q-7.168-26.112-14.080-48.64t-13.568-39.424zM538.112 928.768h-91.648q-7.68 0-18.688 2.816t-22.784 16.64l-41.984 54.272q-2.56 2.56-4.352 5.632t-3.328 5.632l-7.68-11.264-41.984-54.272q-11.776-13.824-22.784-16.64t-18.688-2.816h-87.552l123.392 140.8h114.688z"/>
            <glyph unicode="&#xc3;" glyph-name="uniC3" horiz-adv-x="711"
                   d="M716.8 135.68h-106.496q-17.92 0-29.184 8.96t-16.896 22.272l-55.296 151.040h-306.688l-55.296-151.040q-4.096-11.776-15.872-21.504t-29.184-9.728h-107.52l291.328 740.352h140.288zM237.568 415.232h236.032l-90.112 246.272q-6.656 16.384-13.824 38.656t-14.336 48.384q-7.168-26.112-14.080-48.64t-13.568-39.424zM419.328 1005.568q11.264 0 19.712 4.608t13.824 11.52 7.936 15.36 2.56 16.64h77.312q0-25.6-6.912-48.896t-20.48-41.472-33.28-28.928-45.312-10.752q-26.112 0-45.312 8.192t-35.072 17.664-28.928 17.664-26.88 8.192q-11.776 0-19.968-4.608t-13.312-11.776-7.68-15.872-2.56-16.896h-78.336q0 25.088 7.168 48.896t20.736 41.984 33.28 29.184 45.312 11.008q26.112 0 45.568-8.192t34.816-17.664 28.672-17.664 27.136-8.192z"/>
            <glyph unicode="&#xc4;" glyph-name="uniC4" horiz-adv-x="711"
                   d="M716.8 135.68h-106.496q-17.92 0-29.184 8.96t-16.896 22.272l-55.296 151.040h-306.688l-55.296-151.040q-4.096-11.776-15.872-21.504t-29.184-9.728h-107.52l291.328 740.352h140.288zM237.568 415.232h236.032l-90.112 246.272q-6.656 16.384-13.824 38.656t-14.336 48.384q-7.168-26.112-14.080-48.64t-13.568-39.424zM311.296 989.184q0-13.824-5.632-26.112t-15.104-21.504-22.272-14.336-27.136-5.12q-13.312 0-25.344 5.12t-21.248 14.336-14.848 21.504-5.632 26.112 5.632 26.368 14.848 22.016 21.248 15.104 25.344 5.632q14.336 0 27.136-5.632t22.272-15.104 15.104-22.016 5.632-26.368zM536.576 989.184q0-13.824-5.376-26.112t-14.848-21.504-22.016-14.336-26.368-5.12q-14.336 0-26.88 5.12t-21.76 14.336-14.592 21.504-5.376 26.112 5.376 26.368 14.592 22.016 21.76 15.104 26.88 5.632q13.824 0 26.368-5.632t22.016-15.104 14.848-22.016 5.376-26.368z"/>
            <glyph unicode="&#xc5;" glyph-name="uniC5" horiz-adv-x="711"
                   d="M716.8 135.68h-106.496q-17.92 0-29.184 8.96t-16.896 22.272l-55.296 151.040h-306.688l-55.296-151.040q-4.096-11.776-15.872-21.504t-29.184-9.728h-107.52l291.328 740.352h140.288zM237.568 415.232h236.032l-90.112 246.272q-6.656 16.384-13.824 38.656t-14.336 48.384q-7.168-26.112-14.080-48.64t-13.568-39.424zM249.344 1009.152q0 22.016 8.704 40.192t23.296 30.976 33.536 19.968 39.936 7.168q21.504 0 41.216-7.168t34.304-19.968 23.296-30.976 8.704-40.192q0-21.504-8.704-38.912t-23.296-30.208-34.304-19.712-41.216-6.912q-20.992 0-39.936 6.912t-33.536 19.712-23.296 30.208-8.704 38.912zM310.272 1009.152q0-19.968 11.776-32.768t34.304-12.8q20.48 0 32.768 12.8t12.288 32.768q0 21.504-12.288 34.048t-32.768 12.544q-22.528 0-34.304-12.544t-11.776-34.048z"/>
            <glyph unicode="&#xc6;" glyph-name="uniC6" horiz-adv-x="955"
                   d="M915.456 766.464h-355.328l25.088-205.312h260.608v-105.984h-247.808l25.6-209.408h291.84v-110.080h-408.064l-22.528 182.272h-266.24l-72.704-151.552q-6.656-13.824-19.968-22.272t-31.744-8.448h-104.448l376.32 740.352h549.376v-109.568zM265.728 415.232h207.36l-44.032 358.4q-8.192-26.112-17.152-49.152t-17.664-42.496z"/>
            <glyph unicode="&#xc7;" glyph-name="uniC7" horiz-adv-x="677"
                   d="M336.896 15.872q7.168 0 15.616-3.84t24.832-3.84q16.896 0 25.344 6.4t8.448 15.616q0 14.848-18.432 21.248t-56.832 12.032l22.528 66.048q-73.728 6.144-132.864 36.608t-100.608 80.128-63.488 115.712-22.016 143.872q0 83.456 26.624 152.832t75.008 119.552 115.456 78.080 148.48 27.904q80.896 0 143.616-26.624t106.752-69.632l-46.080-64q-4.096-6.144-10.496-10.752t-17.664-4.608q-7.68 0-15.872 4.352t-17.92 10.752-22.528 14.080-29.696 14.080-39.168 10.752-51.456 4.352q-49.664 0-90.88-17.664t-70.912-51.2-46.080-81.92-16.384-110.336q0-62.464 17.664-111.104t47.872-81.92 71.168-50.944 88.064-17.664q28.16 0 50.944 3.072t41.984 9.728 36.352 17.152 34.048 25.856q5.12 4.608 10.752 7.424t11.776 2.816q11.264 0 19.968-8.704l54.272-58.88q-40.448-50.688-98.304-79.616t-136.704-34.048l-6.656-24.576q48.128-11.264 67.584-30.464t19.456-45.824q0-17.408-8.96-31.232t-25.6-23.552-39.68-14.848-50.688-5.12q-20.992 0-39.168 2.816t-36.096 8.448l11.776 39.424q3.072 11.776 14.848 11.776z"/>
            <glyph unicode="&#xc8;" glyph-name="uniC8" horiz-adv-x="589"
                   d="M549.376 876.032v-109.568h-328.704v-205.312h259.072v-105.984h-259.072v-209.408h328.704v-110.080h-466.944v740.352h466.944zM239.616 1088.512q10.24 0 17.664-0.512t13.312-2.816 11.008-6.4 10.752-11.264l111.616-138.752h-91.648q-14.848 0-23.296 1.792t-18.688 10.496l-163.328 147.456h132.608z"/>
            <glyph unicode="&#xc9;" glyph-name="uniC9" horiz-adv-x="589"
                   d="M549.376 876.032v-109.568h-328.704v-205.312h259.072v-105.984h-259.072v-209.408h328.704v-110.080h-466.944v740.352h466.944zM538.624 1088.512l-165.888-146.432q-10.24-9.216-19.456-11.264t-23.552-2.048h-91.648l107.008 138.752q5.12 7.168 10.24 11.52t11.264 6.4 13.568 2.56 17.664 0.512h140.8z"/>
            <glyph unicode="&#xca;" glyph-name="uniCA" horiz-adv-x="589"
                   d="M549.376 876.032v-109.568h-328.704v-205.312h259.072v-105.984h-259.072v-209.408h328.704v-110.080h-466.944v740.352h466.944zM506.368 928.768h-91.648q-7.68 0-18.688 2.816t-22.784 16.64l-41.984 54.272q-2.56 2.56-4.352 5.632t-3.328 5.632l-7.68-11.264-41.984-54.272q-11.776-13.824-22.784-16.64t-18.688-2.816h-87.552l123.392 140.8h114.688z"/>
            <glyph unicode="&#xcb;" glyph-name="uniCB" horiz-adv-x="589"
                   d="M549.376 876.032v-109.568h-328.704v-205.312h259.072v-105.984h-259.072v-209.408h328.704v-110.080h-466.944v740.352h466.944zM279.552 989.184q0-13.824-5.632-26.112t-15.104-21.504-22.272-14.336-27.136-5.12q-13.312 0-25.344 5.12t-21.248 14.336-14.848 21.504-5.632 26.112 5.632 26.368 14.848 22.016 21.248 15.104 25.344 5.632q14.336 0 27.136-5.632t22.272-15.104 15.104-22.016 5.632-26.368zM504.832 989.184q0-13.824-5.376-26.112t-14.848-21.504-22.016-14.336-26.368-5.12q-14.336 0-26.88 5.12t-21.76 14.336-14.592 21.504-5.376 26.112 5.376 26.368 14.592 22.016 21.76 15.104 26.88 5.632q13.824 0 26.368-5.632t22.016-15.104 14.848-22.016 5.376-26.368z"/>
            <glyph unicode="&#xcc;" glyph-name="uniCC" horiz-adv-x="304"
                   d="M220.672 135.68h-138.24v740.352h138.24v-740.352zM69.632 1088.512q10.24 0 17.664-0.512t13.312-2.816 11.008-6.4 10.752-11.264l111.616-138.752h-91.648q-14.848 0-23.296 1.792t-18.688 10.496l-163.328 147.456h132.608z"/>
            <glyph unicode="&#xcd;" glyph-name="uniCD" horiz-adv-x="304"
                   d="M220.672 135.68h-138.24v740.352h138.24v-740.352zM368.64 1088.512l-165.888-146.432q-10.24-9.216-19.456-11.264t-23.552-2.048h-91.648l107.008 138.752q5.12 7.168 10.24 11.52t11.264 6.4 13.568 2.56 17.664 0.512h140.8z"/>
            <glyph unicode="&#xce;" glyph-name="uniCE" horiz-adv-x="304"
                   d="M220.672 135.68h-138.24v740.352h138.24v-740.352zM336.384 928.768h-91.648q-7.68 0-18.688 2.816t-22.784 16.64l-41.984 54.272q-2.56 2.56-4.352 5.632t-3.328 5.632l-7.68-11.264-41.984-54.272q-11.776-13.824-22.784-16.64t-18.688-2.816h-87.552l123.392 140.8h114.688z"/>
            <glyph unicode="&#xcf;" glyph-name="uniCF" horiz-adv-x="304"
                   d="M220.672 135.68h-138.24v740.352h138.24v-740.352zM109.568 989.184q0-13.824-5.632-26.112t-15.104-21.504-22.272-14.336-27.136-5.12q-13.312 0-25.344 5.12t-21.248 14.336-14.848 21.504-5.632 26.112 5.632 26.368 14.848 22.016 21.248 15.104 25.344 5.632q14.336 0 27.136-5.632t22.272-15.104 15.104-22.016 5.632-26.368zM334.848 989.184q0-13.824-5.376-26.112t-14.848-21.504-22.016-14.336-26.368-5.12q-14.336 0-26.88 5.12t-21.76 14.336-14.592 21.504-5.376 26.112 5.376 26.368 14.592 22.016 21.76 15.104 26.88 5.632q13.824 0 26.368-5.632t22.016-15.104 14.848-22.016 5.376-26.368z"/>
            <glyph unicode="&#xd0;" glyph-name="uniD0" horiz-adv-x="788"
                   d="M-0.512 547.328h92.672v328.704h282.112q84.48 0 153.6-27.392t118.272-76.288 76.288-116.992 27.136-149.504-27.136-149.504-76.288-117.248-118.272-76.288-153.6-27.136h-282.112v333.312h-92.672v78.336zM608.256 505.856q0 60.928-16.384 109.312t-46.592 81.92-73.472 51.456-97.536 17.92h-143.872v-219.136h136.192v-78.336h-136.192v-223.744h143.872q54.272 0 97.536 17.92t73.472 51.456 46.592 81.92 16.384 109.312z"/>
            <glyph unicode="&#xd1;" glyph-name="uniD1" horiz-adv-x="789"
                   d="M154.624 876.032q8.704 0 15.104-0.768t11.264-3.072 9.472-6.656 10.24-11.52l388.096-495.616q-1.536 17.92-2.56 35.328t-1.024 32.256v450.048h121.344v-740.352h-70.656q-16.384 0-27.392 5.376t-21.248 18.176l-386.56 493.056q1.536-16.384 2.304-32.512t0.768-29.44v-454.656h-121.344v740.352h72.192zM462.848 1005.568q11.264 0 19.712 4.608t13.824 11.52 7.936 15.36 2.56 16.64h77.312q0-25.6-6.912-48.896t-20.48-41.472-33.28-28.928-45.312-10.752q-26.112 0-45.312 8.192t-35.072 17.664-28.928 17.664-26.88 8.192q-11.776 0-19.968-4.608t-13.312-11.776-7.68-15.872-2.56-16.896h-78.336q0 25.088 7.168 48.896t20.736 41.984 33.28 29.184 45.312 11.008q26.112 0 45.568-8.192t34.816-17.664 28.672-17.664 27.136-8.192z"/>
            <glyph unicode="&#xd2;" glyph-name="uniD2" horiz-adv-x="827"
                   d="M788.48 505.856q0-81.408-26.88-150.784t-76.032-120.064-118.272-79.104-153.6-28.416q-83.968 0-153.088 28.416t-118.528 79.104-76.544 120.064-27.136 150.784 27.136 150.784 76.544 120.064 118.528 79.104 153.088 28.416q56.32 0 105.984-13.056t91.136-36.864 74.496-57.856 56.064-76.032 35.072-91.136 12.032-103.424zM647.68 505.856q0 60.928-16.384 109.312t-46.592 82.176-73.472 51.712-97.536 17.92-97.536-17.92-73.728-51.712-46.848-82.176-16.384-109.312 16.384-109.312 46.848-81.92 73.728-51.456 97.536-17.92 97.536 17.92 73.472 51.456 46.592 81.92 16.384 109.312zM330.752 1088.512q10.24 0 17.664-0.512t13.312-2.816 11.008-6.4 10.752-11.264l111.616-138.752h-91.648q-14.848 0-23.296 1.792t-18.688 10.496l-163.328 147.456h132.608z"/>
            <glyph unicode="&#xd3;" glyph-name="uniD3" horiz-adv-x="827"
                   d="M788.48 505.856q0-81.408-26.88-150.784t-76.032-120.064-118.272-79.104-153.6-28.416q-83.968 0-153.088 28.416t-118.528 79.104-76.544 120.064-27.136 150.784 27.136 150.784 76.544 120.064 118.528 79.104 153.088 28.416q56.32 0 105.984-13.056t91.136-36.864 74.496-57.856 56.064-76.032 35.072-91.136 12.032-103.424zM647.68 505.856q0 60.928-16.384 109.312t-46.592 82.176-73.472 51.712-97.536 17.92-97.536-17.92-73.728-51.712-46.848-82.176-16.384-109.312 16.384-109.312 46.848-81.92 73.728-51.456 97.536-17.92 97.536 17.92 73.472 51.456 46.592 81.92 16.384 109.312zM629.76 1088.512l-165.888-146.432q-10.24-9.216-19.456-11.264t-23.552-2.048h-91.648l107.008 138.752q5.12 7.168 10.24 11.52t11.264 6.4 13.568 2.56 17.664 0.512h140.8z"/>
            <glyph unicode="&#xd4;" glyph-name="uniD4" horiz-adv-x="827"
                   d="M788.48 505.856q0-81.408-26.88-150.784t-76.032-120.064-118.272-79.104-153.6-28.416q-83.968 0-153.088 28.416t-118.528 79.104-76.544 120.064-27.136 150.784 27.136 150.784 76.544 120.064 118.528 79.104 153.088 28.416q56.32 0 105.984-13.056t91.136-36.864 74.496-57.856 56.064-76.032 35.072-91.136 12.032-103.424zM647.68 505.856q0 60.928-16.384 109.312t-46.592 82.176-73.472 51.712-97.536 17.92-97.536-17.92-73.728-51.712-46.848-82.176-16.384-109.312 16.384-109.312 46.848-81.92 73.728-51.456 97.536-17.92 97.536 17.92 73.472 51.456 46.592 81.92 16.384 109.312zM597.504 928.768h-91.648q-7.68 0-18.688 2.816t-22.784 16.64l-41.984 54.272q-2.56 2.56-4.352 5.632t-3.328 5.632l-7.68-11.264-41.984-54.272q-11.776-13.824-22.784-16.64t-18.688-2.816h-87.552l123.392 140.8h114.688z"/>
            <glyph unicode="&#xd5;" glyph-name="uniD5" horiz-adv-x="827"
                   d="M788.48 505.856q0-81.408-26.88-150.784t-76.032-120.064-118.272-79.104-153.6-28.416q-83.968 0-153.088 28.416t-118.528 79.104-76.544 120.064-27.136 150.784 27.136 150.784 76.544 120.064 118.528 79.104 153.088 28.416q56.32 0 105.984-13.056t91.136-36.864 74.496-57.856 56.064-76.032 35.072-91.136 12.032-103.424zM647.68 505.856q0 60.928-16.384 109.312t-46.592 82.176-73.472 51.712-97.536 17.92-97.536-17.92-73.728-51.712-46.848-82.176-16.384-109.312 16.384-109.312 46.848-81.92 73.728-51.456 97.536-17.92 97.536 17.92 73.472 51.456 46.592 81.92 16.384 109.312zM478.72 1005.568q11.264 0 19.712 4.608t13.824 11.52 7.936 15.36 2.56 16.64h77.312q0-25.6-6.912-48.896t-20.48-41.472-33.28-28.928-45.312-10.752q-26.112 0-45.312 8.192t-35.072 17.664-28.928 17.664-26.88 8.192q-11.776 0-19.968-4.608t-13.312-11.776-7.68-15.872-2.56-16.896h-78.336q0 25.088 7.168 48.896t20.736 41.984 33.28 29.184 45.312 11.008q26.112 0 45.568-8.192t34.816-17.664 28.672-17.664 27.136-8.192z"/>
            <glyph unicode="&#xd6;" glyph-name="uniD6" horiz-adv-x="827"
                   d="M788.48 505.856q0-81.408-26.88-150.784t-76.032-120.064-118.272-79.104-153.6-28.416q-83.968 0-153.088 28.416t-118.528 79.104-76.544 120.064-27.136 150.784 27.136 150.784 76.544 120.064 118.528 79.104 153.088 28.416q56.32 0 105.984-13.056t91.136-36.864 74.496-57.856 56.064-76.032 35.072-91.136 12.032-103.424zM647.68 505.856q0 60.928-16.384 109.312t-46.592 82.176-73.472 51.712-97.536 17.92-97.536-17.92-73.728-51.712-46.848-82.176-16.384-109.312 16.384-109.312 46.848-81.92 73.728-51.456 97.536-17.92 97.536 17.92 73.472 51.456 46.592 81.92 16.384 109.312zM370.688 989.184q0-13.824-5.632-26.112t-15.104-21.504-22.272-14.336-27.136-5.12q-13.312 0-25.344 5.12t-21.248 14.336-14.848 21.504-5.632 26.112 5.632 26.368 14.848 22.016 21.248 15.104 25.344 5.632q14.336 0 27.136-5.632t22.272-15.104 15.104-22.016 5.632-26.368zM595.968 989.184q0-13.824-5.376-26.112t-14.848-21.504-22.016-14.336-26.368-5.12q-14.336 0-26.88 5.12t-21.76 14.336-14.592 21.504-5.376 26.112 5.376 26.368 14.592 22.016 21.76 15.104 26.88 5.632q13.824 0 26.368-5.632t22.016-15.104 14.848-22.016 5.376-26.368z"/>
            <glyph unicode="&#xd7;" glyph-name="uniD7" horiz-adv-x="594"
                   d="M530.944 645.632l-166.4-166.4 174.080-174.080-67.072-66.048-173.568 173.568-175.104-174.592-67.072 66.048 175.104 175.104-166.912 167.424 66.56 66.56 166.912-167.424 165.888 166.4z"/>
            <glyph unicode="&#xd8;" glyph-name="uniD8" horiz-adv-x="827"
                   d="M788.48 505.856q0-81.408-26.88-150.784t-76.032-120.064-118.272-79.104-153.6-28.416q-51.712 0-97.28 10.752t-85.504 31.232l-38.912-53.76q-14.848-20.48-35.328-28.672t-40.448-8.192h-54.272l99.84 137.216q-58.88 51.2-91.136 125.44t-32.256 164.352q0 81.408 27.136 150.784t76.544 120.064 118.528 79.104 153.088 28.416q56.32 0 105.984-13.056t91.136-37.12l30.72 41.984q6.656 9.216 12.288 15.616t11.776 10.496 14.080 5.888 19.2 1.792h70.144l-91.648-125.952q53.248-51.2 82.176-122.112t28.928-155.904zM179.2 505.856q0-58.88 14.848-105.472t43.008-80.384l301.568 414.72q-53.248 32.256-124.928 32.256-54.272 0-97.536-17.92t-73.728-51.712-46.848-82.176-16.384-109.312zM647.68 505.856q0 52.736-12.288 95.744t-35.328 75.776l-296.96-408.576q48.64-23.552 110.592-23.552 54.272 0 97.536 17.92t73.472 51.456 46.592 81.92 16.384 109.312z"/>
            <glyph unicode="&#xd9;" glyph-name="uniD9" horiz-adv-x="760"
                   d="M380.416 246.784q39.936 0 71.424 13.312t52.992 37.376 33.024 58.368 11.52 76.8v443.392h137.728v-443.392q0-66.048-21.248-122.112t-60.928-96.768-96.512-63.488-128-22.784q-71.68 0-128.512 22.784t-96.512 63.488-60.928 96.768-21.248 122.112v443.392h137.728v-442.88q0-42.496 11.52-76.8t33.28-58.624 53.248-37.632 71.424-13.312zM296.448 1088.512q10.24 0 17.664-0.512t13.312-2.816 11.008-6.4 10.752-11.264l111.616-138.752h-91.648q-14.848 0-23.296 1.792t-18.688 10.496l-163.328 147.456h132.608z"/>
            <glyph unicode="&#xda;" glyph-name="uniDA" horiz-adv-x="760"
                   d="M380.416 246.784q39.936 0 71.424 13.312t52.992 37.376 33.024 58.368 11.52 76.8v443.392h137.728v-443.392q0-66.048-21.248-122.112t-60.928-96.768-96.512-63.488-128-22.784q-71.68 0-128.512 22.784t-96.512 63.488-60.928 96.768-21.248 122.112v443.392h137.728v-442.88q0-42.496 11.52-76.8t33.28-58.624 53.248-37.632 71.424-13.312zM595.456 1088.512l-165.888-146.432q-10.24-9.216-19.456-11.264t-23.552-2.048h-91.648l107.008 138.752q5.12 7.168 10.24 11.52t11.264 6.4 13.568 2.56 17.664 0.512h140.8z"/>
            <glyph unicode="&#xdb;" glyph-name="uniDB" horiz-adv-x="760"
                   d="M380.416 246.784q39.936 0 71.424 13.312t52.992 37.376 33.024 58.368 11.52 76.8v443.392h137.728v-443.392q0-66.048-21.248-122.112t-60.928-96.768-96.512-63.488-128-22.784q-71.68 0-128.512 22.784t-96.512 63.488-60.928 96.768-21.248 122.112v443.392h137.728v-442.88q0-42.496 11.52-76.8t33.28-58.624 53.248-37.632 71.424-13.312zM563.2 928.768h-91.648q-7.68 0-18.688 2.816t-22.784 16.64l-41.984 54.272q-2.56 2.56-4.352 5.632t-3.328 5.632l-7.68-11.264-41.984-54.272q-11.776-13.824-22.784-16.64t-18.688-2.816h-87.552l123.392 140.8h114.688z"/>
            <glyph unicode="&#xdc;" glyph-name="uniDC" horiz-adv-x="760"
                   d="M380.416 246.784q39.936 0 71.424 13.312t52.992 37.376 33.024 58.368 11.52 76.8v443.392h137.728v-443.392q0-66.048-21.248-122.112t-60.928-96.768-96.512-63.488-128-22.784q-71.68 0-128.512 22.784t-96.512 63.488-60.928 96.768-21.248 122.112v443.392h137.728v-442.88q0-42.496 11.52-76.8t33.28-58.624 53.248-37.632 71.424-13.312zM336.384 989.184q0-13.824-5.632-26.112t-15.104-21.504-22.272-14.336-27.136-5.12q-13.312 0-25.344 5.12t-21.248 14.336-14.848 21.504-5.632 26.112 5.632 26.368 14.848 22.016 21.248 15.104 25.344 5.632q14.336 0 27.136-5.632t22.272-15.104 15.104-22.016 5.632-26.368zM561.664 989.184q0-13.824-5.376-26.112t-14.848-21.504-22.016-14.336-26.368-5.12q-14.336 0-26.88 5.12t-21.76 14.336-14.592 21.504-5.376 26.112 5.376 26.368 14.592 22.016 21.76 15.104 26.88 5.632q13.824 0 26.368-5.632t22.016-15.104 14.848-22.016 5.376-26.368z"/>
            <glyph unicode="&#xdd;" glyph-name="uniDD" horiz-adv-x="664"
                   d="M400.384 422.4v-286.72h-137.216v286.72l-269.824 453.632h121.344q17.92 0 28.416-8.704t17.664-22.016l135.168-247.296q11.776-22.528 20.736-41.984t16.128-38.4q6.656 19.456 15.36 38.912t19.968 41.472l134.656 247.296q5.632 11.264 16.896 20.992t28.672 9.728h121.856zM548.352 1088.512l-165.888-146.432q-10.24-9.216-19.456-11.264t-23.552-2.048h-91.648l107.008 138.752q5.12 7.168 10.24 11.52t11.264 6.4 13.568 2.56 17.664 0.512h140.8z"/>
            <glyph unicode="&#xde;" glyph-name="uniDE" horiz-adv-x="630"
                   d="M220.16 269.312v-133.632h-137.728v740.352h137.728v-126.976h102.912q74.24 0 128.512-17.408t89.6-48.64 52.48-74.752 17.152-95.232q0-53.76-17.92-98.56t-53.76-77.056-89.856-50.176-126.208-17.92h-102.912zM220.16 376.832h102.912q37.888 0 66.048 9.472t46.848 27.136 27.904 43.008 9.216 56.576q0 29.696-9.216 53.76t-27.648 40.96-46.592 25.856-66.56 8.96h-102.912v-265.728z"/>
            <glyph unicode="&#xdf;" glyph-name="uniDF" horiz-adv-x="617"
                   d="M330.752 888.832q59.904 0 102.4-17.408t69.12-43.52 38.912-56.32 12.288-56.32q0-29.696-9.984-50.688t-25.088-36.864-32.512-27.648-32.512-22.528-25.088-22.272-9.984-26.368q0-16.896 12.8-29.184t31.744-24.064 41.472-25.088 41.472-32.512 31.744-46.336 12.8-66.56q0-43.52-16.128-76.544t-43.776-55.552-64.256-34.048-77.568-11.52q-23.552 0-46.592 4.864t-44.288 13.568-40.192 20.48-34.304 25.6l29.696 48.128q5.12 8.704 12.8 13.312t19.456 4.608 22.528-6.656 23.552-14.336 29.184-14.336 39.424-6.656q32.256 0 51.968 19.2t19.712 49.92q0 24.064-13.824 39.936t-34.304 28.416-44.8 24.576-44.8 28.16-34.304 39.168-13.824 58.368q0 29.184 10.752 50.176t26.88 37.376 34.816 29.44 34.816 26.88 26.88 29.696 10.752 37.376q0 16.896-5.888 32t-18.688 26.112-32.768 17.664-48.128 6.656q-67.072 0-101.632-41.216t-34.56-120.576v-499.712h-126.464v503.808q0 54.272 18.432 99.84t53.248 78.848 84.48 51.968 112.128 18.688z"/>
            <glyph unicode="&#xe0;" glyph-name="uniE0" horiz-adv-x="520"
                   d="M406.016 135.68q-17.92 0-27.648 5.376t-15.36 21.76l-11.264 37.376q-19.968-17.92-38.912-31.488t-39.424-22.784-43.776-13.824-51.456-4.608q-33.28 0-61.44 8.96t-48.64 26.88-31.744 44.544-11.264 61.952q0 29.696 15.616 58.624t51.968 52.224 96.768 38.656 150.528 17.408v30.72q0 52.736-22.528 78.080t-65.024 25.344q-30.72 0-50.944-7.168t-35.584-16.128-27.904-16.128-27.904-7.168q-13.312 0-22.528 6.912t-14.848 16.128l-22.528 40.448q90.624 82.944 218.112 82.944 46.080 0 82.432-15.104t61.44-41.984 38.144-64.256 13.056-81.92v-331.776h-57.344zM217.088 214.528q38.912 0 67.328 14.080t55.552 42.752v88.576q-55.296-2.56-92.416-9.472t-59.648-17.664-32.256-25.088-9.728-31.232q0-33.28 19.712-47.616t51.456-14.336zM210.944 884.224q20.992 0 31.232-6.912t17.408-20.224l73.216-124.416h-72.192q-14.336 0-23.296 3.84t-18.176 14.080l-126.464 133.632h118.272z"/>
            <glyph unicode="&#xe1;" glyph-name="uniE1" horiz-adv-x="520"
                   d="M406.016 135.68q-17.92 0-27.648 5.376t-15.36 21.76l-11.264 37.376q-19.968-17.92-38.912-31.488t-39.424-22.784-43.776-13.824-51.456-4.608q-33.28 0-61.44 8.96t-48.64 26.88-31.744 44.544-11.264 61.952q0 29.696 15.616 58.624t51.968 52.224 96.768 38.656 150.528 17.408v30.72q0 52.736-22.528 78.080t-65.024 25.344q-30.72 0-50.944-7.168t-35.584-16.128-27.904-16.128-27.904-7.168q-13.312 0-22.528 6.912t-14.848 16.128l-22.528 40.448q90.624 82.944 218.112 82.944 46.080 0 82.432-15.104t61.44-41.984 38.144-64.256 13.056-81.92v-331.776h-57.344zM217.088 214.528q38.912 0 67.328 14.080t55.552 42.752v88.576q-55.296-2.56-92.416-9.472t-59.648-17.664-32.256-25.088-9.728-31.232q0-33.28 19.712-47.616t51.456-14.336zM433.664 884.224l-126.464-133.632q-9.728-10.24-18.688-14.080t-23.296-3.84h-75.776l72.704 124.416q7.68 13.312 17.92 20.224t30.72 6.912h122.88z"/>
            <glyph unicode="&#xe2;" glyph-name="uniE2" horiz-adv-x="520"
                   d="M406.016 135.68q-17.92 0-27.648 5.376t-15.36 21.76l-11.264 37.376q-19.968-17.92-38.912-31.488t-39.424-22.784-43.776-13.824-51.456-4.608q-33.28 0-61.44 8.96t-48.64 26.88-31.744 44.544-11.264 61.952q0 29.696 15.616 58.624t51.968 52.224 96.768 38.656 150.528 17.408v30.72q0 52.736-22.528 78.080t-65.024 25.344q-30.72 0-50.944-7.168t-35.584-16.128-27.904-16.128-27.904-7.168q-13.312 0-22.528 6.912t-14.848 16.128l-22.528 40.448q90.624 82.944 218.112 82.944 46.080 0 82.432-15.104t61.44-41.984 38.144-64.256 13.056-81.92v-331.776h-57.344zM217.088 214.528q38.912 0 67.328 14.080t55.552 42.752v88.576q-55.296-2.56-92.416-9.472t-59.648-17.664-32.256-25.088-9.728-31.232q0-33.28 19.712-47.616t51.456-14.336zM433.152 733.696h-84.48q-7.168 0-14.592 2.816t-14.592 9.984l-50.176 53.248q-5.632 5.12-10.752 12.288-5.632-7.168-10.752-12.288l-51.2-53.248q-6.144-6.656-13.824-9.728t-15.36-3.072h-87.552l117.248 142.336h118.784z"/>
            <glyph unicode="&#xe3;" glyph-name="uniE3" horiz-adv-x="520"
                   d="M406.016 135.68q-17.92 0-27.648 5.376t-15.36 21.76l-11.264 37.376q-19.968-17.92-38.912-31.488t-39.424-22.784-43.776-13.824-51.456-4.608q-33.28 0-61.44 8.96t-48.64 26.88-31.744 44.544-11.264 61.952q0 29.696 15.616 58.624t51.968 52.224 96.768 38.656 150.528 17.408v30.72q0 52.736-22.528 78.080t-65.024 25.344q-30.72 0-50.944-7.168t-35.584-16.128-27.904-16.128-27.904-7.168q-13.312 0-22.528 6.912t-14.848 16.128l-22.528 40.448q90.624 82.944 218.112 82.944 46.080 0 82.432-15.104t61.44-41.984 38.144-64.256 13.056-81.92v-331.776h-57.344zM217.088 214.528q38.912 0 67.328 14.080t55.552 42.752v88.576q-55.296-2.56-92.416-9.472t-59.648-17.664-32.256-25.088-9.728-31.232q0-33.28 19.712-47.616t51.456-14.336zM311.296 831.488q15.36 0 24.064 8.448t8.704 30.464h76.8q0-28.672-7.936-51.968t-21.76-39.936-33.024-25.6-42.24-8.96q-18.432 0-34.304 6.656t-29.696 14.336-25.856 14.336-22.272 6.656q-14.848 0-23.296-8.96t-8.448-30.464h-78.336q0 28.672 7.936 51.968t22.272 39.936 33.536 25.856 41.728 9.216q18.432 0 34.56-6.656t29.952-14.336 25.6-14.336 22.016-6.656z"/>
            <glyph unicode="&#xe4;" glyph-name="uniE4" horiz-adv-x="520"
                   d="M406.016 135.68q-17.92 0-27.648 5.376t-15.36 21.76l-11.264 37.376q-19.968-17.92-38.912-31.488t-39.424-22.784-43.776-13.824-51.456-4.608q-33.28 0-61.44 8.96t-48.64 26.88-31.744 44.544-11.264 61.952q0 29.696 15.616 58.624t51.968 52.224 96.768 38.656 150.528 17.408v30.72q0 52.736-22.528 78.080t-65.024 25.344q-30.72 0-50.944-7.168t-35.584-16.128-27.904-16.128-27.904-7.168q-13.312 0-22.528 6.912t-14.848 16.128l-22.528 40.448q90.624 82.944 218.112 82.944 46.080 0 82.432-15.104t61.44-41.984 38.144-64.256 13.056-81.92v-331.776h-57.344zM217.088 214.528q38.912 0 67.328 14.080t55.552 42.752v88.576q-55.296-2.56-92.416-9.472t-59.648-17.664-32.256-25.088-9.728-31.232q0-33.28 19.712-47.616t51.456-14.336zM223.744 797.184q0-14.336-5.632-26.88t-15.616-21.76-23.040-14.592-27.904-5.376q-13.824 0-26.368 5.376t-22.016 14.592-15.104 21.76-5.632 26.88q0 14.848 5.632 27.904t15.104 22.784 22.016 15.36 26.368 5.632q14.848 0 27.904-5.632t23.040-15.36 15.616-22.784 5.632-27.904zM430.592 797.184q0-14.336-5.632-26.88t-15.104-21.76-22.528-14.592-27.904-5.376q-14.336 0-27.136 5.376t-22.272 14.592-15.104 21.76-5.632 26.88q0 14.848 5.632 27.904t15.104 22.784 22.272 15.36 27.136 5.632q14.848 0 27.904-5.632t22.528-15.36 15.104-22.784 5.632-27.904z"/>
            <glyph unicode="&#xe5;" glyph-name="uniE5" horiz-adv-x="520"
                   d="M406.016 135.68q-17.92 0-27.648 5.376t-15.36 21.76l-11.264 37.376q-19.968-17.92-38.912-31.488t-39.424-22.784-43.776-13.824-51.456-4.608q-33.28 0-61.44 8.96t-48.64 26.88-31.744 44.544-11.264 61.952q0 29.696 15.616 58.624t51.968 52.224 96.768 38.656 150.528 17.408v30.72q0 52.736-22.528 78.080t-65.024 25.344q-30.72 0-50.944-7.168t-35.584-16.128-27.904-16.128-27.904-7.168q-13.312 0-22.528 6.912t-14.848 16.128l-22.528 40.448q90.624 82.944 218.112 82.944 46.080 0 82.432-15.104t61.44-41.984 38.144-64.256 13.056-81.92v-331.776h-57.344zM217.088 214.528q38.912 0 67.328 14.080t55.552 42.752v88.576q-55.296-2.56-92.416-9.472t-59.648-17.664-32.256-25.088-9.728-31.232q0-33.28 19.712-47.616t51.456-14.336zM142.848 814.080q0 23.552 9.216 43.008t24.832 33.28 36.096 21.504 43.008 7.68q23.040 0 44.032-7.68t36.864-21.504 25.344-33.28 9.472-43.008q0-23.040-9.472-41.984t-25.344-32.512-36.864-20.992-44.032-7.424q-22.528 0-43.008 7.424t-36.096 20.992-24.832 32.512-9.216 41.984zM211.456 814.080q0-19.456 12.032-32.512t34.56-13.056q20.48 0 32.768 13.056t12.288 32.512q0 21.504-12.288 34.048t-32.768 12.544q-22.528 0-34.56-12.544t-12.032-34.048z"/>
            <glyph unicode="&#xe6;" glyph-name="uniE6" horiz-adv-x="829"
                   d="M585.728 669.184q44.544 0 82.944-17.152t66.56-49.408 44.288-78.336 16.128-103.424q0-14.336-1.28-23.808t-4.352-14.848-8.448-7.68-14.080-2.304h-306.688q7.168-75.264 42.752-110.848t91.392-35.584q34.816 0 56.832 6.656t36.352 14.848 23.808 14.848 20.224 6.656q18.432 0 25.6-11.776l34.304-43.008q-20.992-24.576-46.336-41.216t-52.48-26.624-55.296-14.080-54.784-4.096q-55.808 0-104.192 25.088t-79.616 78.336q-15.36-27.648-38.144-47.36t-49.92-32.256-57.856-18.432-61.952-5.888q-37.888 0-68.608 9.728t-52.224 28.416-33.024 46.592-11.52 64.256q0 19.456 6.656 39.68t21.76 38.912 39.168 35.328 59.136 29.184 81.664 20.48 106.496 9.472v17.92q0 52.736-22.528 79.872t-65.024 27.136q-30.72 0-50.944-7.936t-35.584-17.152-27.904-17.152-27.904-7.936q-13.312 0-22.528 6.912t-14.848 16.128l-22.528 40.448q45.568 41.472 94.976 62.208t109.824 20.736q58.88 0 96.768-22.528t57.856-61.952q29.184 38.4 72.704 60.672t102.4 22.272zM340.992 372.224q-55.296-2.56-92.416-10.496t-59.648-19.712-32-27.136-9.472-32.256q0-35.328 19.712-51.712t55.040-16.384q25.088 0 46.848 7.68t37.632 23.808 25.088 41.728 9.216 60.928v23.552zM580.608 578.56q-53.76 0-83.2-34.048t-36.096-96h221.696q0 25.088-6.144 48.64t-18.944 41.728-32 28.928-45.312 10.752z"/>
            <glyph unicode="&#xe7;" glyph-name="uniE7" horiz-adv-x="495"
                   d="M214.528 15.872q7.168 0 15.872-3.84t25.088-3.84q16.896 0 25.344 6.4t8.448 15.616q0 14.848-18.432 21.248t-56.832 12.032l22.528 67.072q-43.008 6.144-79.872 26.88t-64 54.784-42.752 81.152-15.616 105.984q0 57.856 16.64 107.264t48.896 85.504 79.872 56.576 109.568 20.48q58.88 0 103.168-18.944t79.616-54.272l-33.28-46.080q-5.632-7.168-11.008-11.264t-15.616-4.096q-9.728 0-18.944 5.888t-22.016 13.312-30.464 13.312-43.776 5.888q-33.28 0-58.368-12.032t-41.728-34.56-24.832-54.528-8.192-72.448q0-41.984 8.96-74.752t25.856-55.040 40.96-33.792 54.272-11.52 48.896 7.424 31.488 16.384 22.272 16.384 21.248 7.424q15.36 0 23.040-11.776l36.352-46.080q-34.816-40.96-78.848-60.16t-90.112-23.808l-6.656-25.6q48.128-11.264 67.328-30.464t19.2-45.824q0-17.408-8.96-31.232t-25.6-23.552-39.424-14.848-50.432-5.12q-20.992 0-39.424 2.816t-35.84 8.448l11.264 39.424q3.072 11.776 14.848 11.776z"/>
            </font>
</defs>
</svg>
